<mxfile host="Electron" modified="2023-10-30T06:15:04.528Z" agent="Mozilla/5.0 (Windows NT 10.0; Win64; x64) AppleWebKit/537.36 (KHTML, like Gecko) draw.io/22.0.0 Chrome/114.0.5735.289 Electron/25.8.3 Safari/537.36" etag="tNuwxP_2kE1LC_j0GTu0" version="22.0.0" type="device">
  <diagram name="Page-1" id="2Cz8t8MNROx3FPMYZajf">
    <mxGraphModel dx="-1951" dy="4934" grid="0" gridSize="10" guides="1" tooltips="1" connect="1" arrows="1" fold="1" page="0" pageScale="1" pageWidth="850" pageHeight="1100" math="0" shadow="0">
      <root>
        <mxCell id="0" />
        <mxCell id="1" parent="0" />
        <mxCell id="34zzspt5p7VHjFRCgEZw-5" value="Hey..." style="rounded=0;whiteSpace=wrap;html=1;fontSize=16;fillColor=#d5e8d4;strokeColor=#82b366;" parent="1" vertex="1">
          <mxGeometry x="5083" y="-2785" width="120" height="60" as="geometry" />
        </mxCell>
        <mxCell id="34zzspt5p7VHjFRCgEZw-7" value="A boyfriend goes to war, mother needs to give him all the love for him to confident to return from it.&lt;br&gt;&lt;br&gt;Player here is Mom&lt;br&gt;&lt;br&gt;Chapter 2: Player plays as the boyfriend" style="shape=note;size=20;whiteSpace=wrap;html=1;fontSize=16;" parent="1" vertex="1">
          <mxGeometry x="4994" y="-3061" width="301" height="172" as="geometry" />
        </mxCell>
        <mxCell id="34zzspt5p7VHjFRCgEZw-8" value="Hahaha, what is going on here!" style="rounded=0;whiteSpace=wrap;html=1;fontSize=16;fillColor=#d5e8d4;strokeColor=#82b366;" parent="1" vertex="1">
          <mxGeometry x="5295" y="-2602" width="120" height="60" as="geometry" />
        </mxCell>
        <mxCell id="34zzspt5p7VHjFRCgEZw-9" value="" style="endArrow=classic;html=1;rounded=0;fontSize=12;startSize=8;endSize=8;curved=1;exitX=0.75;exitY=1;exitDx=0;exitDy=0;entryX=0.5;entryY=0;entryDx=0;entryDy=0;" parent="1" source="34zzspt5p7VHjFRCgEZw-5" target="34zzspt5p7VHjFRCgEZw-8" edge="1">
          <mxGeometry width="50" height="50" relative="1" as="geometry">
            <mxPoint x="5028" y="-2589" as="sourcePoint" />
            <mxPoint x="5078" y="-2639" as="targetPoint" />
          </mxGeometry>
        </mxCell>
        <mxCell id="34zzspt5p7VHjFRCgEZw-12" value="Hey!" style="edgeLabel;html=1;align=center;verticalAlign=middle;resizable=0;points=[];fontSize=16;" parent="34zzspt5p7VHjFRCgEZw-9" vertex="1" connectable="0">
          <mxGeometry x="-0.0295" y="-1" relative="1" as="geometry">
            <mxPoint as="offset" />
          </mxGeometry>
        </mxCell>
        <mxCell id="34zzspt5p7VHjFRCgEZw-10" value="How is it going?" style="rounded=0;whiteSpace=wrap;html=1;fontSize=16;fillColor=#f8cecc;strokeColor=#b85450;" parent="1" vertex="1">
          <mxGeometry x="4904" y="-2602" width="132" height="55" as="geometry" />
        </mxCell>
        <mxCell id="34zzspt5p7VHjFRCgEZw-11" value="" style="endArrow=classic;html=1;rounded=0;fontSize=12;startSize=8;endSize=8;curved=1;exitX=0.25;exitY=1;exitDx=0;exitDy=0;" parent="1" source="34zzspt5p7VHjFRCgEZw-5" target="34zzspt5p7VHjFRCgEZw-10" edge="1">
          <mxGeometry width="50" height="50" relative="1" as="geometry">
            <mxPoint x="4953" y="-2633" as="sourcePoint" />
            <mxPoint x="5003" y="-2683" as="targetPoint" />
          </mxGeometry>
        </mxCell>
        <mxCell id="34zzspt5p7VHjFRCgEZw-13" value="Hey..." style="edgeLabel;html=1;align=center;verticalAlign=middle;resizable=0;points=[];fontSize=16;" parent="34zzspt5p7VHjFRCgEZw-11" vertex="1" connectable="0">
          <mxGeometry x="0.0539" relative="1" as="geometry">
            <mxPoint as="offset" />
          </mxGeometry>
        </mxCell>
        <mxCell id="34zzspt5p7VHjFRCgEZw-14" value="" style="endArrow=classic;html=1;rounded=0;fontSize=12;startSize=8;endSize=8;curved=1;exitX=0.25;exitY=1;exitDx=0;exitDy=0;entryX=0.465;entryY=0.02;entryDx=0;entryDy=0;entryPerimeter=0;" parent="1" source="34zzspt5p7VHjFRCgEZw-10" target="34zzspt5p7VHjFRCgEZw-16" edge="1">
          <mxGeometry width="50" height="50" relative="1" as="geometry">
            <mxPoint x="4819" y="-2471" as="sourcePoint" />
            <mxPoint x="4876" y="-2470" as="targetPoint" />
          </mxGeometry>
        </mxCell>
        <mxCell id="34zzspt5p7VHjFRCgEZw-18" value="I feel overwhelmed..." style="edgeLabel;html=1;align=center;verticalAlign=middle;resizable=0;points=[];fontSize=16;" parent="34zzspt5p7VHjFRCgEZw-14" vertex="1" connectable="0">
          <mxGeometry x="-0.0169" relative="1" as="geometry">
            <mxPoint as="offset" />
          </mxGeometry>
        </mxCell>
        <mxCell id="34zzspt5p7VHjFRCgEZw-15" value="" style="endArrow=classic;html=1;rounded=0;fontSize=12;startSize=8;endSize=8;curved=1;exitX=1;exitY=0.5;exitDx=0;exitDy=0;entryX=0;entryY=0.5;entryDx=0;entryDy=0;" parent="1" source="34zzspt5p7VHjFRCgEZw-10" target="34zzspt5p7VHjFRCgEZw-8" edge="1">
          <mxGeometry width="50" height="50" relative="1" as="geometry">
            <mxPoint x="5041" y="-2415" as="sourcePoint" />
            <mxPoint x="5069" y="-2465" as="targetPoint" />
          </mxGeometry>
        </mxCell>
        <mxCell id="34zzspt5p7VHjFRCgEZw-19" value="(Gives him a big hug)" style="edgeLabel;html=1;align=center;verticalAlign=middle;resizable=0;points=[];fontSize=16;" parent="34zzspt5p7VHjFRCgEZw-15" vertex="1" connectable="0">
          <mxGeometry x="-0.2523" y="-1" relative="1" as="geometry">
            <mxPoint x="18" y="3" as="offset" />
          </mxGeometry>
        </mxCell>
        <mxCell id="34zzspt5p7VHjFRCgEZw-16" value="It is going to be all right mom. It is going to be all right! Our country has train me well for this day." style="rounded=0;whiteSpace=wrap;html=1;fontSize=16;fillColor=#f8cecc;strokeColor=#b85450;" parent="1" vertex="1">
          <mxGeometry x="4690" y="-2477.5" width="293" height="108.5" as="geometry" />
        </mxCell>
        <mxCell id="34zzspt5p7VHjFRCgEZw-17" value="I promise, I will come back...&amp;nbsp;" style="rounded=0;whiteSpace=wrap;html=1;fontSize=16;fillColor=#d5e8d4;strokeColor=#82b366;" parent="1" vertex="1">
          <mxGeometry x="5565" y="-2437" width="225" height="59" as="geometry" />
        </mxCell>
        <mxCell id="34zzspt5p7VHjFRCgEZw-20" value="" style="endArrow=none;dashed=1;html=1;rounded=0;fontSize=12;startSize=8;endSize=8;curved=1;exitX=0.5;exitY=0;exitDx=0;exitDy=0;entryX=0.5;entryY=1;entryDx=0;entryDy=0;entryPerimeter=0;" parent="1" source="34zzspt5p7VHjFRCgEZw-5" target="34zzspt5p7VHjFRCgEZw-7" edge="1">
          <mxGeometry width="50" height="50" relative="1" as="geometry">
            <mxPoint x="5154" y="-2879" as="sourcePoint" />
            <mxPoint x="5204" y="-2929" as="targetPoint" />
          </mxGeometry>
        </mxCell>
        <mxCell id="34zzspt5p7VHjFRCgEZw-21" value="" style="endArrow=classic;html=1;rounded=0;fontSize=12;startSize=8;endSize=8;curved=1;exitX=0.75;exitY=1;exitDx=0;exitDy=0;" parent="1" source="34zzspt5p7VHjFRCgEZw-8" target="34zzspt5p7VHjFRCgEZw-17" edge="1">
          <mxGeometry width="50" height="50" relative="1" as="geometry">
            <mxPoint x="5293" y="-2378.5" as="sourcePoint" />
            <mxPoint x="5343" y="-2428.5" as="targetPoint" />
          </mxGeometry>
        </mxCell>
        <mxCell id="34zzspt5p7VHjFRCgEZw-36" value="Dear, come in my arms." style="edgeLabel;html=1;align=center;verticalAlign=middle;resizable=0;points=[];fontSize=16;" parent="34zzspt5p7VHjFRCgEZw-21" vertex="1" connectable="0">
          <mxGeometry x="-0.0633" y="2" relative="1" as="geometry">
            <mxPoint x="39" as="offset" />
          </mxGeometry>
        </mxCell>
        <mxCell id="34zzspt5p7VHjFRCgEZw-27" value="Big brother! Do you want to play dolls with me?" style="rounded=0;whiteSpace=wrap;html=1;fontSize=16;" parent="1" vertex="1">
          <mxGeometry x="7265" y="-3394" width="184" height="78" as="geometry" />
        </mxCell>
        <mxCell id="34zzspt5p7VHjFRCgEZw-28" value="Convo with little sister&lt;br&gt;&lt;br&gt;Player here is Brother" style="shape=note;size=20;whiteSpace=wrap;html=1;fontSize=16;" parent="1" vertex="1">
          <mxGeometry x="6820" y="-3487" width="161" height="100" as="geometry" />
        </mxCell>
        <mxCell id="34zzspt5p7VHjFRCgEZw-29" value="" style="endArrow=none;dashed=1;html=1;rounded=0;fontSize=12;startSize=8;endSize=8;curved=1;exitX=-0.002;exitY=0.563;exitDx=0;exitDy=0;entryX=0;entryY=0;entryDx=161;entryDy=60;entryPerimeter=0;exitPerimeter=0;" parent="1" source="34zzspt5p7VHjFRCgEZw-27" target="34zzspt5p7VHjFRCgEZw-28" edge="1">
          <mxGeometry width="50" height="50" relative="1" as="geometry">
            <mxPoint x="6701" y="-3255" as="sourcePoint" />
            <mxPoint x="6751" y="-3305" as="targetPoint" />
          </mxGeometry>
        </mxCell>
        <mxCell id="34zzspt5p7VHjFRCgEZw-30" value="" style="endArrow=classic;html=1;rounded=0;fontSize=12;startSize=8;endSize=8;curved=1;exitX=0.75;exitY=1;exitDx=0;exitDy=0;entryX=0.5;entryY=0;entryDx=0;entryDy=0;" parent="1" source="34zzspt5p7VHjFRCgEZw-16" target="34zzspt5p7VHjFRCgEZw-35" edge="1">
          <mxGeometry width="50" height="50" relative="1" as="geometry">
            <mxPoint x="4790" y="-2100" as="sourcePoint" />
            <mxPoint x="4767" y="-2133" as="targetPoint" />
          </mxGeometry>
        </mxCell>
        <mxCell id="34zzspt5p7VHjFRCgEZw-32" value="Dear, we have enough money &lt;br&gt;to run. You don&#39;t have to go." style="edgeLabel;html=1;align=center;verticalAlign=middle;resizable=0;points=[];fontSize=16;" parent="34zzspt5p7VHjFRCgEZw-30" vertex="1" connectable="0">
          <mxGeometry x="-0.035" relative="1" as="geometry">
            <mxPoint as="offset" />
          </mxGeometry>
        </mxCell>
        <mxCell id="34zzspt5p7VHjFRCgEZw-31" value="" style="endArrow=classic;html=1;rounded=0;fontSize=12;startSize=8;endSize=8;curved=1;entryX=0.5;entryY=0;entryDx=0;entryDy=0;exitX=0.25;exitY=1;exitDx=0;exitDy=0;" parent="1" source="34zzspt5p7VHjFRCgEZw-16" target="34zzspt5p7VHjFRCgEZw-34" edge="1">
          <mxGeometry width="50" height="50" relative="1" as="geometry">
            <mxPoint x="4924" y="-2129" as="sourcePoint" />
            <mxPoint x="5102" y="-2131" as="targetPoint" />
          </mxGeometry>
        </mxCell>
        <mxCell id="34zzspt5p7VHjFRCgEZw-33" value="I would like you to know that&lt;br&gt;you don&#39;t&amp;nbsp;have to worry about us.&lt;br&gt;Please, take care of yourself." style="edgeLabel;html=1;align=center;verticalAlign=middle;resizable=0;points=[];fontSize=16;" parent="34zzspt5p7VHjFRCgEZw-31" vertex="1" connectable="0">
          <mxGeometry x="-0.0965" y="2" relative="1" as="geometry">
            <mxPoint as="offset" />
          </mxGeometry>
        </mxCell>
        <mxCell id="34zzspt5p7VHjFRCgEZw-34" value="Haha, I am not a child anymore!" style="rounded=0;whiteSpace=wrap;html=1;fontSize=16;" parent="1" vertex="1">
          <mxGeometry x="4423" y="-2185" width="120" height="60" as="geometry" />
        </mxCell>
        <mxCell id="34zzspt5p7VHjFRCgEZw-35" value="I understand... but... I love you..." style="rounded=0;whiteSpace=wrap;html=1;fontSize=16;fillColor=#f8cecc;strokeColor=#b85450;" parent="1" vertex="1">
          <mxGeometry x="5099" y="-2170" width="150" height="60" as="geometry" />
        </mxCell>
        <mxCell id="34zzspt5p7VHjFRCgEZw-37" value="I won&#39;t forget." style="rounded=0;whiteSpace=wrap;html=1;fontSize=16;fillColor=#fff2cc;strokeColor=#d6b656;" parent="1" vertex="1">
          <mxGeometry x="5183" y="-1405" width="120" height="60" as="geometry" />
        </mxCell>
        <mxCell id="34zzspt5p7VHjFRCgEZw-38" value="" style="endArrow=classic;html=1;rounded=0;fontSize=12;startSize=8;endSize=8;curved=1;exitX=0.781;exitY=0.997;exitDx=0;exitDy=0;exitPerimeter=0;entryX=0.5;entryY=0;entryDx=0;entryDy=0;" parent="1" source="34zzspt5p7VHjFRCgEZw-17" target="34zzspt5p7VHjFRCgEZw-39" edge="1">
          <mxGeometry width="50" height="50" relative="1" as="geometry">
            <mxPoint x="5395" y="-2197" as="sourcePoint" />
            <mxPoint x="5562" y="-2215" as="targetPoint" />
          </mxGeometry>
        </mxCell>
        <mxCell id="34zzspt5p7VHjFRCgEZw-49" value="You promise?" style="edgeLabel;html=1;align=center;verticalAlign=middle;resizable=0;points=[];fontSize=16;" parent="34zzspt5p7VHjFRCgEZw-38" vertex="1" connectable="0">
          <mxGeometry x="-0.1094" relative="1" as="geometry">
            <mxPoint as="offset" />
          </mxGeometry>
        </mxCell>
        <mxCell id="34zzspt5p7VHjFRCgEZw-39" value="I promise." style="rounded=0;whiteSpace=wrap;html=1;fontSize=16;" parent="1" vertex="1">
          <mxGeometry x="5803" y="-2145" width="120" height="60" as="geometry" />
        </mxCell>
        <mxCell id="34zzspt5p7VHjFRCgEZw-41" value="Dad supports me on this." style="rounded=0;whiteSpace=wrap;html=1;fontSize=16;" parent="1" vertex="1">
          <mxGeometry x="5170" y="-2446.5" width="161" height="96" as="geometry" />
        </mxCell>
        <mxCell id="34zzspt5p7VHjFRCgEZw-43" value="" style="endArrow=classic;html=1;rounded=0;fontSize=12;startSize=8;endSize=8;curved=1;exitX=0.25;exitY=1;exitDx=0;exitDy=0;entryX=0.5;entryY=0;entryDx=0;entryDy=0;" parent="1" source="34zzspt5p7VHjFRCgEZw-8" target="34zzspt5p7VHjFRCgEZw-41" edge="1">
          <mxGeometry width="50" height="50" relative="1" as="geometry">
            <mxPoint x="5232" y="-2332" as="sourcePoint" />
            <mxPoint x="5282" y="-2382" as="targetPoint" />
          </mxGeometry>
        </mxCell>
        <mxCell id="34zzspt5p7VHjFRCgEZw-44" value="You don&#39;t have to&lt;br&gt;go." style="edgeLabel;html=1;align=center;verticalAlign=middle;resizable=0;points=[];fontSize=16;" parent="34zzspt5p7VHjFRCgEZw-43" vertex="1" connectable="0">
          <mxGeometry x="0.0077" y="-1" relative="1" as="geometry">
            <mxPoint as="offset" />
          </mxGeometry>
        </mxCell>
        <mxCell id="34zzspt5p7VHjFRCgEZw-45" value="" style="endArrow=classic;html=1;rounded=0;fontSize=12;startSize=8;endSize=8;curved=1;exitX=0.5;exitY=1;exitDx=0;exitDy=0;entryX=0.75;entryY=0;entryDx=0;entryDy=0;" parent="1" source="34zzspt5p7VHjFRCgEZw-41" target="34zzspt5p7VHjFRCgEZw-35" edge="1">
          <mxGeometry width="50" height="50" relative="1" as="geometry">
            <mxPoint x="5342" y="-2188" as="sourcePoint" />
            <mxPoint x="5392" y="-2238" as="targetPoint" />
          </mxGeometry>
        </mxCell>
        <mxCell id="34zzspt5p7VHjFRCgEZw-46" value="You understand that for us, you&lt;br&gt;are not replaceable." style="edgeLabel;html=1;align=center;verticalAlign=middle;resizable=0;points=[];fontSize=16;" parent="34zzspt5p7VHjFRCgEZw-45" vertex="1" connectable="0">
          <mxGeometry x="-0.1331" y="3" relative="1" as="geometry">
            <mxPoint x="23" y="-26" as="offset" />
          </mxGeometry>
        </mxCell>
        <mxCell id="34zzspt5p7VHjFRCgEZw-51" value="" style="endArrow=classic;html=1;rounded=0;fontSize=12;startSize=8;endSize=8;curved=1;exitX=0.25;exitY=1;exitDx=0;exitDy=0;entryX=0.5;entryY=0;entryDx=0;entryDy=0;" parent="1" source="34zzspt5p7VHjFRCgEZw-17" target="34zzspt5p7VHjFRCgEZw-125" edge="1">
          <mxGeometry width="50" height="50" relative="1" as="geometry">
            <mxPoint x="5386" y="-2144" as="sourcePoint" />
            <mxPoint x="5474" y="-2151" as="targetPoint" />
          </mxGeometry>
        </mxCell>
        <mxCell id="34zzspt5p7VHjFRCgEZw-53" value="(Give him a big bear hug)" style="edgeLabel;html=1;align=center;verticalAlign=middle;resizable=0;points=[];fontSize=16;" parent="34zzspt5p7VHjFRCgEZw-51" vertex="1" connectable="0">
          <mxGeometry x="0.0152" relative="1" as="geometry">
            <mxPoint as="offset" />
          </mxGeometry>
        </mxCell>
        <mxCell id="34zzspt5p7VHjFRCgEZw-52" value="....." style="rounded=0;whiteSpace=wrap;html=1;fontSize=16;fillColor=#d5e8d4;strokeColor=#82b366;" parent="1" vertex="1">
          <mxGeometry x="5543" y="-1831.17" width="120" height="60" as="geometry" />
        </mxCell>
        <mxCell id="34zzspt5p7VHjFRCgEZw-54" value="I promise..." style="rounded=0;whiteSpace=wrap;html=1;fontSize=16;" parent="1" vertex="1">
          <mxGeometry x="5887" y="-1827" width="120" height="60" as="geometry" />
        </mxCell>
        <mxCell id="34zzspt5p7VHjFRCgEZw-55" value="" style="endArrow=classic;html=1;rounded=0;fontSize=12;startSize=8;endSize=8;curved=1;entryX=1;entryY=0;entryDx=0;entryDy=0;" parent="1" source="34zzspt5p7VHjFRCgEZw-39" target="34zzspt5p7VHjFRCgEZw-52" edge="1">
          <mxGeometry width="50" height="50" relative="1" as="geometry">
            <mxPoint x="5564" y="-1978" as="sourcePoint" />
            <mxPoint x="5614" y="-2028" as="targetPoint" />
          </mxGeometry>
        </mxCell>
        <mxCell id="34zzspt5p7VHjFRCgEZw-56" value="(Gives him a big hug)" style="edgeLabel;html=1;align=center;verticalAlign=middle;resizable=0;points=[];fontSize=16;" parent="34zzspt5p7VHjFRCgEZw-55" vertex="1" connectable="0">
          <mxGeometry x="-0.1136" y="-1" relative="1" as="geometry">
            <mxPoint y="1" as="offset" />
          </mxGeometry>
        </mxCell>
        <mxCell id="34zzspt5p7VHjFRCgEZw-57" value="" style="endArrow=classic;html=1;rounded=0;fontSize=12;startSize=8;endSize=8;curved=1;exitX=0.75;exitY=1;exitDx=0;exitDy=0;entryX=0.5;entryY=0;entryDx=0;entryDy=0;" parent="1" source="34zzspt5p7VHjFRCgEZw-39" target="34zzspt5p7VHjFRCgEZw-54" edge="1">
          <mxGeometry width="50" height="50" relative="1" as="geometry">
            <mxPoint x="5724" y="-1749" as="sourcePoint" />
            <mxPoint x="5774" y="-1799" as="targetPoint" />
          </mxGeometry>
        </mxCell>
        <mxCell id="34zzspt5p7VHjFRCgEZw-73" value="You promise?" style="edgeLabel;html=1;align=center;verticalAlign=middle;resizable=0;points=[];fontSize=16;" parent="34zzspt5p7VHjFRCgEZw-57" vertex="1" connectable="0">
          <mxGeometry x="-0.1177" y="3" relative="1" as="geometry">
            <mxPoint as="offset" />
          </mxGeometry>
        </mxCell>
        <mxCell id="34zzspt5p7VHjFRCgEZw-58" value="" style="endArrow=classic;html=1;rounded=0;fontSize=12;startSize=8;endSize=8;curved=1;exitX=0.5;exitY=1;exitDx=0;exitDy=0;entryX=1;entryY=0.25;entryDx=0;entryDy=0;" parent="1" source="34zzspt5p7VHjFRCgEZw-54" target="34zzspt5p7VHjFRCgEZw-37" edge="1">
          <mxGeometry width="50" height="50" relative="1" as="geometry">
            <mxPoint x="5628" y="-1760" as="sourcePoint" />
            <mxPoint x="5678" y="-1810" as="targetPoint" />
          </mxGeometry>
        </mxCell>
        <mxCell id="34zzspt5p7VHjFRCgEZw-59" value="I pray for your return." style="edgeLabel;html=1;align=center;verticalAlign=middle;resizable=0;points=[];fontSize=16;" parent="34zzspt5p7VHjFRCgEZw-58" vertex="1" connectable="0">
          <mxGeometry x="-0.059" y="1" relative="1" as="geometry">
            <mxPoint as="offset" />
          </mxGeometry>
        </mxCell>
        <mxCell id="34zzspt5p7VHjFRCgEZw-60" value="" style="endArrow=classic;html=1;rounded=0;fontSize=12;startSize=8;endSize=8;curved=1;exitX=0;exitY=0.5;exitDx=0;exitDy=0;entryX=1;entryY=0.5;entryDx=0;entryDy=0;" parent="1" source="34zzspt5p7VHjFRCgEZw-54" target="34zzspt5p7VHjFRCgEZw-52" edge="1">
          <mxGeometry width="50" height="50" relative="1" as="geometry">
            <mxPoint x="5635" y="-1859" as="sourcePoint" />
            <mxPoint x="5685" y="-1909" as="targetPoint" />
          </mxGeometry>
        </mxCell>
        <mxCell id="34zzspt5p7VHjFRCgEZw-61" value="(Gives him a big hug)" style="edgeLabel;html=1;align=center;verticalAlign=middle;resizable=0;points=[];fontSize=16;" parent="34zzspt5p7VHjFRCgEZw-60" vertex="1" connectable="0">
          <mxGeometry x="0.0895" relative="1" as="geometry">
            <mxPoint as="offset" />
          </mxGeometry>
        </mxCell>
        <mxCell id="34zzspt5p7VHjFRCgEZw-62" value="" style="endArrow=classic;html=1;rounded=0;fontSize=12;startSize=8;endSize=8;curved=1;exitX=0.367;exitY=1.011;exitDx=0;exitDy=0;exitPerimeter=0;entryX=0.75;entryY=0;entryDx=0;entryDy=0;" parent="1" source="34zzspt5p7VHjFRCgEZw-52" target="34zzspt5p7VHjFRCgEZw-37" edge="1">
          <mxGeometry width="50" height="50" relative="1" as="geometry">
            <mxPoint x="5145" y="-1816" as="sourcePoint" />
            <mxPoint x="5195" y="-1866" as="targetPoint" />
          </mxGeometry>
        </mxCell>
        <mxCell id="34zzspt5p7VHjFRCgEZw-63" value="(Continue to embrace)" style="edgeLabel;html=1;align=center;verticalAlign=middle;resizable=0;points=[];fontSize=16;" parent="34zzspt5p7VHjFRCgEZw-62" vertex="1" connectable="0">
          <mxGeometry x="-0.098" y="1" relative="1" as="geometry">
            <mxPoint as="offset" />
          </mxGeometry>
        </mxCell>
        <mxCell id="34zzspt5p7VHjFRCgEZw-64" value="I need to get my stuff..." style="rounded=0;whiteSpace=wrap;html=1;fontSize=16;fillColor=#f8cecc;strokeColor=#b85450;" parent="1" vertex="1">
          <mxGeometry x="5024" y="-1815" width="120" height="60" as="geometry" />
        </mxCell>
        <mxCell id="34zzspt5p7VHjFRCgEZw-65" value="Mom..." style="rounded=0;whiteSpace=wrap;html=1;fontSize=16;" parent="1" vertex="1">
          <mxGeometry x="4199" y="-1810" width="120" height="60" as="geometry" />
        </mxCell>
        <mxCell id="34zzspt5p7VHjFRCgEZw-66" value="" style="endArrow=classic;html=1;rounded=0;fontSize=12;startSize=8;endSize=8;curved=1;exitX=0.25;exitY=1;exitDx=0;exitDy=0;entryX=0.75;entryY=0;entryDx=0;entryDy=0;" parent="1" source="34zzspt5p7VHjFRCgEZw-35" target="34zzspt5p7VHjFRCgEZw-64" edge="1">
          <mxGeometry width="50" height="50" relative="1" as="geometry">
            <mxPoint x="5139" y="-2002" as="sourcePoint" />
            <mxPoint x="5189" y="-2052" as="targetPoint" />
          </mxGeometry>
        </mxCell>
        <mxCell id="34zzspt5p7VHjFRCgEZw-67" value="Please don&#39;t go..." style="edgeLabel;html=1;align=center;verticalAlign=middle;resizable=0;points=[];fontSize=16;" parent="34zzspt5p7VHjFRCgEZw-66" vertex="1" connectable="0">
          <mxGeometry x="-0.0601" y="-2" relative="1" as="geometry">
            <mxPoint x="-1" as="offset" />
          </mxGeometry>
        </mxCell>
        <mxCell id="34zzspt5p7VHjFRCgEZw-68" value="" style="endArrow=classic;html=1;rounded=0;fontSize=12;startSize=8;endSize=8;curved=1;exitX=0.75;exitY=1;exitDx=0;exitDy=0;entryX=0.5;entryY=0;entryDx=0;entryDy=0;" parent="1" source="34zzspt5p7VHjFRCgEZw-35" target="34zzspt5p7VHjFRCgEZw-69" edge="1">
          <mxGeometry width="50" height="50" relative="1" as="geometry">
            <mxPoint x="5180" y="-1853" as="sourcePoint" />
            <mxPoint x="5181" y="-1980" as="targetPoint" />
          </mxGeometry>
        </mxCell>
        <mxCell id="34zzspt5p7VHjFRCgEZw-80" value="You may go..." style="edgeLabel;html=1;align=center;verticalAlign=middle;resizable=0;points=[];fontSize=16;" parent="34zzspt5p7VHjFRCgEZw-68" vertex="1" connectable="0">
          <mxGeometry x="-0.0127" relative="1" as="geometry">
            <mxPoint as="offset" />
          </mxGeometry>
        </mxCell>
        <mxCell id="34zzspt5p7VHjFRCgEZw-69" value="Thank you..." style="rounded=0;whiteSpace=wrap;html=1;fontSize=16;" parent="1" vertex="1">
          <mxGeometry x="5246" y="-1833" width="120" height="60" as="geometry" />
        </mxCell>
        <mxCell id="34zzspt5p7VHjFRCgEZw-70" value="" style="endArrow=classic;html=1;rounded=0;fontSize=12;startSize=8;endSize=8;curved=1;exitX=0.25;exitY=1;exitDx=0;exitDy=0;entryX=0.5;entryY=0;entryDx=0;entryDy=0;" parent="1" source="34zzspt5p7VHjFRCgEZw-34" target="34zzspt5p7VHjFRCgEZw-65" edge="1">
          <mxGeometry width="50" height="50" relative="1" as="geometry">
            <mxPoint x="4792" y="-1976" as="sourcePoint" />
            <mxPoint x="4842" y="-2026" as="targetPoint" />
          </mxGeometry>
        </mxCell>
        <mxCell id="34zzspt5p7VHjFRCgEZw-85" value="No, you are my&lt;br&gt;child." style="edgeLabel;html=1;align=center;verticalAlign=middle;resizable=0;points=[];fontSize=16;" parent="34zzspt5p7VHjFRCgEZw-70" vertex="1" connectable="0">
          <mxGeometry x="0.0068" y="-1" relative="1" as="geometry">
            <mxPoint as="offset" />
          </mxGeometry>
        </mxCell>
        <mxCell id="34zzspt5p7VHjFRCgEZw-71" value="" style="endArrow=classic;html=1;rounded=0;fontSize=12;startSize=8;endSize=8;curved=1;exitX=0;exitY=0.5;exitDx=0;exitDy=0;entryX=1;entryY=0.5;entryDx=0;entryDy=0;" parent="1" source="34zzspt5p7VHjFRCgEZw-52" target="34zzspt5p7VHjFRCgEZw-69" edge="1">
          <mxGeometry width="50" height="50" relative="1" as="geometry">
            <mxPoint x="5178" y="-1803" as="sourcePoint" />
            <mxPoint x="5228" y="-1853" as="targetPoint" />
          </mxGeometry>
        </mxCell>
        <mxCell id="34zzspt5p7VHjFRCgEZw-72" value="I will pray&lt;br&gt;for your return." style="edgeLabel;html=1;align=center;verticalAlign=middle;resizable=0;points=[];fontSize=16;" parent="34zzspt5p7VHjFRCgEZw-71" vertex="1" connectable="0">
          <mxGeometry x="-0.1785" y="1" relative="1" as="geometry">
            <mxPoint as="offset" />
          </mxGeometry>
        </mxCell>
        <mxCell id="34zzspt5p7VHjFRCgEZw-74" value="" style="endArrow=classic;html=1;rounded=0;fontSize=12;startSize=8;endSize=8;curved=1;exitX=0.75;exitY=1;exitDx=0;exitDy=0;entryX=0.152;entryY=0.041;entryDx=0;entryDy=0;entryPerimeter=0;" parent="1" source="34zzspt5p7VHjFRCgEZw-64" target="34zzspt5p7VHjFRCgEZw-37" edge="1">
          <mxGeometry width="50" height="50" relative="1" as="geometry">
            <mxPoint x="5074" y="-1729" as="sourcePoint" />
            <mxPoint x="5124" y="-1779" as="targetPoint" />
          </mxGeometry>
        </mxCell>
        <mxCell id="34zzspt5p7VHjFRCgEZw-75" value="..." style="edgeLabel;html=1;align=center;verticalAlign=middle;resizable=0;points=[];fontSize=16;" parent="34zzspt5p7VHjFRCgEZw-74" vertex="1" connectable="0">
          <mxGeometry x="-0.1543" y="1" relative="1" as="geometry">
            <mxPoint as="offset" />
          </mxGeometry>
        </mxCell>
        <mxCell id="34zzspt5p7VHjFRCgEZw-76" value="" style="endArrow=classic;html=1;rounded=0;fontSize=12;startSize=8;endSize=8;curved=1;exitX=0.567;exitY=1.092;exitDx=0;exitDy=0;exitPerimeter=0;entryX=0.5;entryY=0;entryDx=0;entryDy=0;" parent="1" source="34zzspt5p7VHjFRCgEZw-69" target="34zzspt5p7VHjFRCgEZw-37" edge="1">
          <mxGeometry width="50" height="50" relative="1" as="geometry">
            <mxPoint x="5192" y="-1790" as="sourcePoint" />
            <mxPoint x="5242" y="-1840" as="targetPoint" />
          </mxGeometry>
        </mxCell>
        <mxCell id="34zzspt5p7VHjFRCgEZw-81" value="..." style="edgeLabel;html=1;align=center;verticalAlign=middle;resizable=0;points=[];fontSize=16;" parent="34zzspt5p7VHjFRCgEZw-76" vertex="1" connectable="0">
          <mxGeometry x="-0.2238" relative="1" as="geometry">
            <mxPoint as="offset" />
          </mxGeometry>
        </mxCell>
        <mxCell id="34zzspt5p7VHjFRCgEZw-77" value="" style="endArrow=classic;html=1;rounded=0;fontSize=12;startSize=8;endSize=8;curved=1;exitX=0.5;exitY=1;exitDx=0;exitDy=0;entryX=0;entryY=1;entryDx=0;entryDy=0;" parent="1" source="34zzspt5p7VHjFRCgEZw-65" target="34zzspt5p7VHjFRCgEZw-37" edge="1">
          <mxGeometry width="50" height="50" relative="1" as="geometry">
            <mxPoint x="4797" y="-1712" as="sourcePoint" />
            <mxPoint x="4847" y="-1762" as="targetPoint" />
          </mxGeometry>
        </mxCell>
        <mxCell id="34zzspt5p7VHjFRCgEZw-82" value="Don&#39;t forget who you&lt;br&gt;are." style="edgeLabel;html=1;align=center;verticalAlign=middle;resizable=0;points=[];fontSize=16;" parent="34zzspt5p7VHjFRCgEZw-77" vertex="1" connectable="0">
          <mxGeometry x="-0.1199" y="-2" relative="1" as="geometry">
            <mxPoint as="offset" />
          </mxGeometry>
        </mxCell>
        <mxCell id="34zzspt5p7VHjFRCgEZw-78" value="" style="endArrow=classic;html=1;rounded=0;fontSize=12;startSize=8;endSize=8;curved=1;entryX=0;entryY=0.25;entryDx=0;entryDy=0;" parent="1" source="34zzspt5p7VHjFRCgEZw-34" target="34zzspt5p7VHjFRCgEZw-79" edge="1">
          <mxGeometry width="50" height="50" relative="1" as="geometry">
            <mxPoint x="4826" y="-2001" as="sourcePoint" />
            <mxPoint x="4765" y="-1986" as="targetPoint" />
          </mxGeometry>
        </mxCell>
        <mxCell id="34zzspt5p7VHjFRCgEZw-84" value="I still make your breakfast&lt;br&gt;every morning." style="edgeLabel;html=1;align=center;verticalAlign=middle;resizable=0;points=[];fontSize=16;" parent="34zzspt5p7VHjFRCgEZw-78" vertex="1" connectable="0">
          <mxGeometry x="-0.0968" y="-1" relative="1" as="geometry">
            <mxPoint x="20" y="8" as="offset" />
          </mxGeometry>
        </mxCell>
        <mxCell id="34zzspt5p7VHjFRCgEZw-79" value="They were delicious!" style="rounded=0;whiteSpace=wrap;html=1;fontSize=16;" parent="1" vertex="1">
          <mxGeometry x="4790" y="-2172" width="120" height="60" as="geometry" />
        </mxCell>
        <mxCell id="34zzspt5p7VHjFRCgEZw-83" value="" style="endArrow=classic;html=1;rounded=0;fontSize=12;startSize=8;endSize=8;curved=1;exitX=0.5;exitY=1;exitDx=0;exitDy=0;entryX=0.5;entryY=0;entryDx=0;entryDy=0;" parent="1" source="34zzspt5p7VHjFRCgEZw-79" target="34zzspt5p7VHjFRCgEZw-86" edge="1">
          <mxGeometry width="50" height="50" relative="1" as="geometry">
            <mxPoint x="4938" y="-1786" as="sourcePoint" />
            <mxPoint x="4783" y="-1953" as="targetPoint" />
          </mxGeometry>
        </mxCell>
        <mxCell id="34zzspt5p7VHjFRCgEZw-90" value="One day, I would like to eat&lt;br&gt;your cooking too." style="edgeLabel;html=1;align=center;verticalAlign=middle;resizable=0;points=[];fontSize=16;" parent="34zzspt5p7VHjFRCgEZw-83" vertex="1" connectable="0">
          <mxGeometry x="-0.0285" y="2" relative="1" as="geometry">
            <mxPoint as="offset" />
          </mxGeometry>
        </mxCell>
        <mxCell id="34zzspt5p7VHjFRCgEZw-86" value="After this is over, we will be reunited." style="rounded=0;whiteSpace=wrap;html=1;fontSize=16;" parent="1" vertex="1">
          <mxGeometry x="4637" y="-1822" width="120" height="60" as="geometry" />
        </mxCell>
        <mxCell id="34zzspt5p7VHjFRCgEZw-87" value="" style="endArrow=classic;html=1;rounded=0;fontSize=12;startSize=8;endSize=8;curved=1;exitX=0.5;exitY=1;exitDx=0;exitDy=0;entryX=0;entryY=0.25;entryDx=0;entryDy=0;" parent="1" source="34zzspt5p7VHjFRCgEZw-86" target="34zzspt5p7VHjFRCgEZw-37" edge="1">
          <mxGeometry width="50" height="50" relative="1" as="geometry">
            <mxPoint x="4949" y="-1758" as="sourcePoint" />
            <mxPoint x="4999" y="-1808" as="targetPoint" />
          </mxGeometry>
        </mxCell>
        <mxCell id="34zzspt5p7VHjFRCgEZw-93" value="Your dad will also look after&lt;br&gt;from the heavens." style="edgeLabel;html=1;align=center;verticalAlign=middle;resizable=0;points=[];fontSize=16;" parent="34zzspt5p7VHjFRCgEZw-87" vertex="1" connectable="0">
          <mxGeometry x="-0.2757" y="-1" relative="1" as="geometry">
            <mxPoint as="offset" />
          </mxGeometry>
        </mxCell>
        <mxCell id="34zzspt5p7VHjFRCgEZw-88" value="" style="endArrow=classic;html=1;rounded=0;fontSize=12;startSize=8;endSize=8;curved=1;exitX=0;exitY=1;exitDx=0;exitDy=0;entryX=1;entryY=0;entryDx=0;entryDy=0;" parent="1" source="34zzspt5p7VHjFRCgEZw-79" target="34zzspt5p7VHjFRCgEZw-65" edge="1">
          <mxGeometry width="50" height="50" relative="1" as="geometry">
            <mxPoint x="4971" y="-2107" as="sourcePoint" />
            <mxPoint x="5021" y="-2157" as="targetPoint" />
          </mxGeometry>
        </mxCell>
        <mxCell id="34zzspt5p7VHjFRCgEZw-89" value="I still tell you children&#39;s&amp;nbsp;&lt;br&gt;stories at night." style="edgeLabel;html=1;align=center;verticalAlign=middle;resizable=0;points=[];fontSize=16;" parent="34zzspt5p7VHjFRCgEZw-88" vertex="1" connectable="0">
          <mxGeometry x="0.0278" y="2" relative="1" as="geometry">
            <mxPoint x="-19" y="-4" as="offset" />
          </mxGeometry>
        </mxCell>
        <mxCell id="34zzspt5p7VHjFRCgEZw-91" value="" style="endArrow=classic;html=1;rounded=0;fontSize=12;startSize=8;endSize=8;curved=1;exitX=1;exitY=0.5;exitDx=0;exitDy=0;entryX=0;entryY=0.5;entryDx=0;entryDy=0;" parent="1" source="34zzspt5p7VHjFRCgEZw-86" target="34zzspt5p7VHjFRCgEZw-64" edge="1">
          <mxGeometry width="50" height="50" relative="1" as="geometry">
            <mxPoint x="4682" y="-1824" as="sourcePoint" />
            <mxPoint x="4732" y="-1874" as="targetPoint" />
          </mxGeometry>
        </mxCell>
        <mxCell id="34zzspt5p7VHjFRCgEZw-92" value="We will go plant vegetables in&lt;br&gt;our gardens when &lt;br&gt;summer comes!" style="edgeLabel;html=1;align=center;verticalAlign=middle;resizable=0;points=[];fontSize=16;" parent="34zzspt5p7VHjFRCgEZw-91" vertex="1" connectable="0">
          <mxGeometry x="-0.2407" y="-2" relative="1" as="geometry">
            <mxPoint x="31" y="1" as="offset" />
          </mxGeometry>
        </mxCell>
        <mxCell id="34zzspt5p7VHjFRCgEZw-94" value="" style="endArrow=classic;html=1;rounded=0;fontSize=12;startSize=8;endSize=8;curved=1;exitX=0.25;exitY=1;exitDx=0;exitDy=0;entryX=1;entryY=0.75;entryDx=0;entryDy=0;" parent="1" source="34zzspt5p7VHjFRCgEZw-69" target="34zzspt5p7VHjFRCgEZw-65" edge="1">
          <mxGeometry width="50" height="50" relative="1" as="geometry">
            <mxPoint x="5273.5" y="-1712" as="sourcePoint" />
            <mxPoint x="4426.5" y="-1716" as="targetPoint" />
            <Array as="points">
              <mxPoint x="4878" y="-1584" />
            </Array>
          </mxGeometry>
        </mxCell>
        <mxCell id="34zzspt5p7VHjFRCgEZw-95" value="She will also be waiting&lt;br&gt;to play dolls with you." style="edgeLabel;html=1;align=center;verticalAlign=middle;resizable=0;points=[];fontSize=16;" parent="34zzspt5p7VHjFRCgEZw-94" vertex="1" connectable="0">
          <mxGeometry x="-0.2282" y="-70" relative="1" as="geometry">
            <mxPoint x="54" y="-17" as="offset" />
          </mxGeometry>
        </mxCell>
        <mxCell id="34zzspt5p7VHjFRCgEZw-96" value="Mom wants to talk to you before you leave..." style="rounded=0;whiteSpace=wrap;html=1;fontSize=16;fillColor=#f8cecc;strokeColor=#b85450;" parent="1" vertex="1">
          <mxGeometry x="7019" y="-1545" width="246" height="120" as="geometry" />
        </mxCell>
        <mxCell id="34zzspt5p7VHjFRCgEZw-97" value="" style="endArrow=classic;html=1;rounded=0;fontSize=12;startSize=8;endSize=8;curved=1;exitX=0.75;exitY=1;exitDx=0;exitDy=0;entryX=0.5;entryY=0;entryDx=0;entryDy=0;" parent="1" source="34zzspt5p7VHjFRCgEZw-27" target="34zzspt5p7VHjFRCgEZw-100" edge="1">
          <mxGeometry width="50" height="50" relative="1" as="geometry">
            <mxPoint x="6959" y="-3126" as="sourcePoint" />
            <mxPoint x="7169" y="-3168" as="targetPoint" />
          </mxGeometry>
        </mxCell>
        <mxCell id="34zzspt5p7VHjFRCgEZw-101" value="Yes" style="edgeLabel;html=1;align=center;verticalAlign=middle;resizable=0;points=[];fontSize=16;" parent="34zzspt5p7VHjFRCgEZw-97" vertex="1" connectable="0">
          <mxGeometry x="-0.0885" y="1" relative="1" as="geometry">
            <mxPoint as="offset" />
          </mxGeometry>
        </mxCell>
        <mxCell id="34zzspt5p7VHjFRCgEZw-98" value="" style="endArrow=classic;html=1;rounded=0;fontSize=12;startSize=8;endSize=8;curved=1;exitX=0.25;exitY=1;exitDx=0;exitDy=0;entryX=0.5;entryY=0;entryDx=0;entryDy=0;" parent="1" source="34zzspt5p7VHjFRCgEZw-27" target="34zzspt5p7VHjFRCgEZw-99" edge="1">
          <mxGeometry width="50" height="50" relative="1" as="geometry">
            <mxPoint x="6752" y="-3104" as="sourcePoint" />
            <mxPoint x="6819" y="-3157" as="targetPoint" />
          </mxGeometry>
        </mxCell>
        <mxCell id="34zzspt5p7VHjFRCgEZw-102" value="No" style="edgeLabel;html=1;align=center;verticalAlign=middle;resizable=0;points=[];fontSize=16;" parent="34zzspt5p7VHjFRCgEZw-98" vertex="1" connectable="0">
          <mxGeometry x="-0.1081" y="2" relative="1" as="geometry">
            <mxPoint as="offset" />
          </mxGeometry>
        </mxCell>
        <mxCell id="34zzspt5p7VHjFRCgEZw-99" value="Blehh! Before you leave with your friends on a voyage. At least play with me one last time." style="rounded=0;whiteSpace=wrap;html=1;fontSize=16;fillColor=#f8cecc;strokeColor=#b85450;" parent="1" vertex="1">
          <mxGeometry x="6675" y="-3151" width="189" height="84" as="geometry" />
        </mxCell>
        <mxCell id="34zzspt5p7VHjFRCgEZw-100" value="Yay! Do you want to be Louise or Henry this time?" style="rounded=0;whiteSpace=wrap;html=1;fontSize=16;fillColor=#d5e8d4;strokeColor=#82b366;" parent="1" vertex="1">
          <mxGeometry x="7842" y="-3177" width="172" height="88" as="geometry" />
        </mxCell>
        <mxCell id="34zzspt5p7VHjFRCgEZw-103" value="" style="endArrow=classic;html=1;rounded=0;fontSize=12;startSize=8;endSize=8;curved=1;exitX=0.25;exitY=1;exitDx=0;exitDy=0;entryX=0.5;entryY=0;entryDx=0;entryDy=0;" parent="1" source="34zzspt5p7VHjFRCgEZw-99" target="34zzspt5p7VHjFRCgEZw-112" edge="1">
          <mxGeometry width="50" height="50" relative="1" as="geometry">
            <mxPoint x="6746" y="-2848" as="sourcePoint" />
            <mxPoint x="6678" y="-2873" as="targetPoint" />
          </mxGeometry>
        </mxCell>
        <mxCell id="34zzspt5p7VHjFRCgEZw-113" value="Sorry Claire but I am really in a hurry.&lt;br&gt;We can play, to our hearts content when I get back!" style="edgeLabel;html=1;align=center;verticalAlign=middle;resizable=0;points=[];fontSize=16;" parent="34zzspt5p7VHjFRCgEZw-103" vertex="1" connectable="0">
          <mxGeometry x="0.038" y="-1" relative="1" as="geometry">
            <mxPoint as="offset" />
          </mxGeometry>
        </mxCell>
        <mxCell id="34zzspt5p7VHjFRCgEZw-104" value="" style="endArrow=classic;html=1;rounded=0;fontSize=12;startSize=8;endSize=8;curved=1;entryX=0;entryY=0.75;entryDx=0;entryDy=0;" parent="1" source="34zzspt5p7VHjFRCgEZw-99" target="34zzspt5p7VHjFRCgEZw-100" edge="1">
          <mxGeometry width="50" height="50" relative="1" as="geometry">
            <mxPoint x="6843" y="-2919" as="sourcePoint" />
            <mxPoint x="6893" y="-2890" as="targetPoint" />
          </mxGeometry>
        </mxCell>
        <mxCell id="34zzspt5p7VHjFRCgEZw-105" value="Fine, just for a little bit. My friends&lt;br&gt;will be mad if I arrive late." style="edgeLabel;html=1;align=center;verticalAlign=middle;resizable=0;points=[];fontSize=16;" parent="34zzspt5p7VHjFRCgEZw-104" vertex="1" connectable="0">
          <mxGeometry x="0.159" y="1" relative="1" as="geometry">
            <mxPoint x="-47" y="-6" as="offset" />
          </mxGeometry>
        </mxCell>
        <mxCell id="34zzspt5p7VHjFRCgEZw-106" value="" style="endArrow=classic;html=1;rounded=0;fontSize=12;startSize=8;endSize=8;curved=1;exitX=0.75;exitY=1;exitDx=0;exitDy=0;entryX=0.5;entryY=0;entryDx=0;entryDy=0;" parent="1" source="34zzspt5p7VHjFRCgEZw-100" target="34zzspt5p7VHjFRCgEZw-110" edge="1">
          <mxGeometry width="50" height="50" relative="1" as="geometry">
            <mxPoint x="7905" y="-2837" as="sourcePoint" />
            <mxPoint x="8053" y="-2933" as="targetPoint" />
          </mxGeometry>
        </mxCell>
        <mxCell id="34zzspt5p7VHjFRCgEZw-108" value="Henry, please." style="edgeLabel;html=1;align=center;verticalAlign=middle;resizable=0;points=[];fontSize=16;" parent="34zzspt5p7VHjFRCgEZw-106" vertex="1" connectable="0">
          <mxGeometry x="-0.0152" y="2" relative="1" as="geometry">
            <mxPoint as="offset" />
          </mxGeometry>
        </mxCell>
        <mxCell id="34zzspt5p7VHjFRCgEZw-107" value="" style="endArrow=classic;html=1;rounded=0;fontSize=12;startSize=8;endSize=8;curved=1;exitX=0.25;exitY=1;exitDx=0;exitDy=0;entryX=0.5;entryY=0;entryDx=0;entryDy=0;" parent="1" source="34zzspt5p7VHjFRCgEZw-100" target="34zzspt5p7VHjFRCgEZw-111" edge="1">
          <mxGeometry width="50" height="50" relative="1" as="geometry">
            <mxPoint x="7826" y="-2883" as="sourcePoint" />
            <mxPoint x="7867" y="-2910" as="targetPoint" />
          </mxGeometry>
        </mxCell>
        <mxCell id="34zzspt5p7VHjFRCgEZw-109" value="Louise, please." style="edgeLabel;html=1;align=center;verticalAlign=middle;resizable=0;points=[];fontSize=16;" parent="34zzspt5p7VHjFRCgEZw-107" vertex="1" connectable="0">
          <mxGeometry x="-0.1289" y="1" relative="1" as="geometry">
            <mxPoint as="offset" />
          </mxGeometry>
        </mxCell>
        <mxCell id="34zzspt5p7VHjFRCgEZw-110" value="Here you go! Henry is in love with Louise but he is too scared of confessing." style="rounded=0;whiteSpace=wrap;html=1;fontSize=16;fillColor=#d5e8d4;strokeColor=#82b366;" parent="1" vertex="1">
          <mxGeometry x="8361" y="-2895" width="174" height="100" as="geometry" />
        </mxCell>
        <mxCell id="34zzspt5p7VHjFRCgEZw-111" value="Here you go! Louise is sad that Henry doesn&#39;t love her." style="rounded=0;whiteSpace=wrap;html=1;fontSize=16;fillColor=#d5e8d4;strokeColor=#82b366;" parent="1" vertex="1">
          <mxGeometry x="7808" y="-2879" width="162" height="76" as="geometry" />
        </mxCell>
        <mxCell id="34zzspt5p7VHjFRCgEZw-112" value="I hate you! You are leaving me and mom without even saying anything!" style="rounded=0;whiteSpace=wrap;html=1;fontSize=16;fillColor=#f8cecc;strokeColor=#b85450;" parent="1" vertex="1">
          <mxGeometry x="6365" y="-2839" width="187" height="106" as="geometry" />
        </mxCell>
        <mxCell id="34zzspt5p7VHjFRCgEZw-115" value="" style="endArrow=classic;html=1;rounded=0;fontSize=12;startSize=8;endSize=8;curved=1;exitX=0.25;exitY=1;exitDx=0;exitDy=0;entryX=0.5;entryY=0;entryDx=0;entryDy=0;" parent="1" source="34zzspt5p7VHjFRCgEZw-112" target="34zzspt5p7VHjFRCgEZw-142" edge="1">
          <mxGeometry width="50" height="50" relative="1" as="geometry">
            <mxPoint x="6292" y="-2496" as="sourcePoint" />
            <mxPoint x="6291" y="-2502" as="targetPoint" />
          </mxGeometry>
        </mxCell>
        <mxCell id="34zzspt5p7VHjFRCgEZw-116" value="I am really sorry Claire but&lt;br&gt;big brother is really in a hurry&lt;br&gt;this time." style="edgeLabel;html=1;align=center;verticalAlign=middle;resizable=0;points=[];fontSize=16;" parent="34zzspt5p7VHjFRCgEZw-115" vertex="1" connectable="0">
          <mxGeometry x="-0.2383" y="4" relative="1" as="geometry">
            <mxPoint x="-26" y="21" as="offset" />
          </mxGeometry>
        </mxCell>
        <mxCell id="34zzspt5p7VHjFRCgEZw-118" value="You promise?!?" style="rounded=0;whiteSpace=wrap;html=1;fontSize=16;" parent="1" vertex="1">
          <mxGeometry x="7237" y="-2575" width="120" height="60" as="geometry" />
        </mxCell>
        <mxCell id="34zzspt5p7VHjFRCgEZw-119" value="" style="endArrow=classic;html=1;rounded=0;fontSize=12;startSize=8;endSize=8;curved=1;entryX=0.5;entryY=0;entryDx=0;entryDy=0;" parent="1" source="34zzspt5p7VHjFRCgEZw-112" target="34zzspt5p7VHjFRCgEZw-118" edge="1">
          <mxGeometry width="50" height="50" relative="1" as="geometry">
            <mxPoint x="6515" y="-2541" as="sourcePoint" />
            <mxPoint x="6565" y="-2591" as="targetPoint" />
          </mxGeometry>
        </mxCell>
        <mxCell id="34zzspt5p7VHjFRCgEZw-120" value="When I come back, I promise&lt;br&gt;I will play with dolls with you until late a night&lt;br&gt;and bring back lots of candies for you and the dolls." style="edgeLabel;html=1;align=center;verticalAlign=middle;resizable=0;points=[];fontSize=16;" parent="34zzspt5p7VHjFRCgEZw-119" vertex="1" connectable="0">
          <mxGeometry x="0.0326" y="-1" relative="1" as="geometry">
            <mxPoint as="offset" />
          </mxGeometry>
        </mxCell>
        <mxCell id="34zzspt5p7VHjFRCgEZw-121" value="" style="endArrow=classic;html=1;rounded=0;fontSize=12;startSize=8;endSize=8;curved=1;exitX=0.75;exitY=1;exitDx=0;exitDy=0;entryX=0.5;entryY=0;entryDx=0;entryDy=0;" parent="1" source="34zzspt5p7VHjFRCgEZw-118" target="34zzspt5p7VHjFRCgEZw-123" edge="1">
          <mxGeometry width="50" height="50" relative="1" as="geometry">
            <mxPoint x="6584" y="-2277" as="sourcePoint" />
            <mxPoint x="6731" y="-2282" as="targetPoint" />
          </mxGeometry>
        </mxCell>
        <mxCell id="34zzspt5p7VHjFRCgEZw-122" value="I promise." style="edgeLabel;html=1;align=center;verticalAlign=middle;resizable=0;points=[];fontSize=16;" parent="34zzspt5p7VHjFRCgEZw-121" vertex="1" connectable="0">
          <mxGeometry x="-0.2146" y="1" relative="1" as="geometry">
            <mxPoint y="1" as="offset" />
          </mxGeometry>
        </mxCell>
        <mxCell id="34zzspt5p7VHjFRCgEZw-123" value="&amp;nbsp;Liar, liar, pants on fire?&amp;nbsp;" style="rounded=0;whiteSpace=wrap;html=1;fontSize=16;" parent="1" vertex="1">
          <mxGeometry x="7506" y="-2242" width="195" height="57" as="geometry" />
        </mxCell>
        <mxCell id="34zzspt5p7VHjFRCgEZw-125" value="It is so tight!" style="rounded=0;whiteSpace=wrap;html=1;fontSize=16;fillColor=#d5e8d4;strokeColor=#82b366;" parent="1" vertex="1">
          <mxGeometry x="5460" y="-2145" width="120" height="60" as="geometry" />
        </mxCell>
        <mxCell id="34zzspt5p7VHjFRCgEZw-126" value="" style="endArrow=classic;html=1;rounded=0;fontSize=12;startSize=8;endSize=8;curved=1;exitX=0.5;exitY=1;exitDx=0;exitDy=0;entryX=0.5;entryY=0;entryDx=0;entryDy=0;" parent="1" source="34zzspt5p7VHjFRCgEZw-125" target="34zzspt5p7VHjFRCgEZw-52" edge="1">
          <mxGeometry width="50" height="50" relative="1" as="geometry">
            <mxPoint x="5478" y="-1944" as="sourcePoint" />
            <mxPoint x="5528" y="-1994" as="targetPoint" />
          </mxGeometry>
        </mxCell>
        <mxCell id="34zzspt5p7VHjFRCgEZw-127" value="(Continue to embrace)" style="edgeLabel;html=1;align=center;verticalAlign=middle;resizable=0;points=[];fontSize=16;" parent="34zzspt5p7VHjFRCgEZw-126" vertex="1" connectable="0">
          <mxGeometry x="-0.1481" y="-3" relative="1" as="geometry">
            <mxPoint as="offset" />
          </mxGeometry>
        </mxCell>
        <mxCell id="34zzspt5p7VHjFRCgEZw-128" value="" style="endArrow=classic;html=1;rounded=0;fontSize=12;startSize=8;endSize=8;curved=1;exitX=1;exitY=0.5;exitDx=0;exitDy=0;entryX=0;entryY=0.5;entryDx=0;entryDy=0;" parent="1" source="34zzspt5p7VHjFRCgEZw-125" target="34zzspt5p7VHjFRCgEZw-39" edge="1">
          <mxGeometry width="50" height="50" relative="1" as="geometry">
            <mxPoint x="5527" y="-2058" as="sourcePoint" />
            <mxPoint x="5577" y="-2108" as="targetPoint" />
          </mxGeometry>
        </mxCell>
        <mxCell id="34zzspt5p7VHjFRCgEZw-129" value="Don&#39;t die." style="edgeLabel;html=1;align=center;verticalAlign=middle;resizable=0;points=[];fontSize=16;" parent="34zzspt5p7VHjFRCgEZw-128" vertex="1" connectable="0">
          <mxGeometry x="0.1277" y="-1" relative="1" as="geometry">
            <mxPoint as="offset" />
          </mxGeometry>
        </mxCell>
        <mxCell id="34zzspt5p7VHjFRCgEZw-130" value="Little sister goes first&lt;br&gt;then mom" style="shape=note;size=20;whiteSpace=wrap;html=1;fontSize=16;" parent="1" vertex="1">
          <mxGeometry x="5807" y="-3574" width="100" height="100" as="geometry" />
        </mxCell>
        <mxCell id="34zzspt5p7VHjFRCgEZw-131" value="" style="endArrow=none;dashed=1;html=1;rounded=0;fontSize=12;startSize=8;endSize=8;curved=1;entryX=0.5;entryY=1;entryDx=0;entryDy=0;entryPerimeter=0;" parent="1" source="34zzspt5p7VHjFRCgEZw-7" target="34zzspt5p7VHjFRCgEZw-130" edge="1">
          <mxGeometry width="50" height="50" relative="1" as="geometry">
            <mxPoint x="5915" y="-3204" as="sourcePoint" />
            <mxPoint x="5965" y="-3254" as="targetPoint" />
          </mxGeometry>
        </mxCell>
        <mxCell id="34zzspt5p7VHjFRCgEZw-132" value="" style="endArrow=none;dashed=1;html=1;rounded=0;fontSize=12;startSize=8;endSize=8;curved=1;exitX=1;exitY=1;exitDx=0;exitDy=0;exitPerimeter=0;entryX=0;entryY=0.5;entryDx=0;entryDy=0;entryPerimeter=0;" parent="1" source="34zzspt5p7VHjFRCgEZw-130" target="34zzspt5p7VHjFRCgEZw-28" edge="1">
          <mxGeometry width="50" height="50" relative="1" as="geometry">
            <mxPoint x="6188" y="-3395" as="sourcePoint" />
            <mxPoint x="6238" y="-3445" as="targetPoint" />
          </mxGeometry>
        </mxCell>
        <mxCell id="34zzspt5p7VHjFRCgEZw-134" value="" style="endArrow=classic;html=1;rounded=0;fontSize=12;startSize=8;endSize=8;curved=1;exitX=0.75;exitY=1;exitDx=0;exitDy=0;entryX=0.5;entryY=0;entryDx=0;entryDy=0;" parent="1" source="34zzspt5p7VHjFRCgEZw-111" target="34zzspt5p7VHjFRCgEZw-152" edge="1">
          <mxGeometry width="50" height="50" relative="1" as="geometry">
            <mxPoint x="7922" y="-2481" as="sourcePoint" />
            <mxPoint x="8008" y="-2529" as="targetPoint" />
          </mxGeometry>
        </mxCell>
        <mxCell id="34zzspt5p7VHjFRCgEZw-150" value="I am sure Henry loves&lt;br&gt;her very much!" style="edgeLabel;html=1;align=center;verticalAlign=middle;resizable=0;points=[];fontSize=16;" parent="34zzspt5p7VHjFRCgEZw-134" vertex="1" connectable="0">
          <mxGeometry x="-0.2168" y="-2" relative="1" as="geometry">
            <mxPoint x="-55" y="-29" as="offset" />
          </mxGeometry>
        </mxCell>
        <mxCell id="34zzspt5p7VHjFRCgEZw-135" value="" style="endArrow=classic;html=1;rounded=0;fontSize=12;startSize=8;endSize=8;curved=1;exitX=0.75;exitY=1;exitDx=0;exitDy=0;entryX=0.75;entryY=0;entryDx=0;entryDy=0;" parent="1" source="34zzspt5p7VHjFRCgEZw-110" target="34zzspt5p7VHjFRCgEZw-152" edge="1">
          <mxGeometry width="50" height="50" relative="1" as="geometry">
            <mxPoint x="8351" y="-2592" as="sourcePoint" />
            <mxPoint x="8663" y="-2598" as="targetPoint" />
          </mxGeometry>
        </mxCell>
        <mxCell id="34zzspt5p7VHjFRCgEZw-158" value="He loves her very much!" style="edgeLabel;html=1;align=center;verticalAlign=middle;resizable=0;points=[];fontSize=16;" parent="34zzspt5p7VHjFRCgEZw-135" vertex="1" connectable="0">
          <mxGeometry x="-0.2976" y="-1" relative="1" as="geometry">
            <mxPoint as="offset" />
          </mxGeometry>
        </mxCell>
        <mxCell id="34zzspt5p7VHjFRCgEZw-141" value="Okay..." style="rounded=0;whiteSpace=wrap;html=1;fontSize=16;" parent="1" vertex="1">
          <mxGeometry x="6273" y="-2013" width="120" height="60" as="geometry" />
        </mxCell>
        <mxCell id="34zzspt5p7VHjFRCgEZw-142" value="I hate you! I hate you! I hate you!&amp;nbsp;" style="rounded=0;whiteSpace=wrap;html=1;fontSize=16;fillColor=#f8cecc;strokeColor=#b85450;" parent="1" vertex="1">
          <mxGeometry x="6262" y="-2548" width="120" height="60" as="geometry" />
        </mxCell>
        <mxCell id="34zzspt5p7VHjFRCgEZw-143" value="" style="endArrow=classic;html=1;rounded=0;fontSize=12;startSize=8;endSize=8;curved=1;exitX=0.5;exitY=1;exitDx=0;exitDy=0;entryX=0.5;entryY=0;entryDx=0;entryDy=0;" parent="1" source="34zzspt5p7VHjFRCgEZw-142" target="34zzspt5p7VHjFRCgEZw-141" edge="1">
          <mxGeometry width="50" height="50" relative="1" as="geometry">
            <mxPoint x="6348" y="-1894" as="sourcePoint" />
            <mxPoint x="6398" y="-1944" as="targetPoint" />
          </mxGeometry>
        </mxCell>
        <mxCell id="34zzspt5p7VHjFRCgEZw-144" value="Claire, can you promise me to take &lt;br&gt;care of mom when I am gone?" style="edgeLabel;html=1;align=center;verticalAlign=middle;resizable=0;points=[];fontSize=16;" parent="34zzspt5p7VHjFRCgEZw-143" vertex="1" connectable="0">
          <mxGeometry x="0.1564" y="-2" relative="1" as="geometry">
            <mxPoint x="-9" y="-11" as="offset" />
          </mxGeometry>
        </mxCell>
        <mxCell id="34zzspt5p7VHjFRCgEZw-145" value="" style="endArrow=classic;html=1;rounded=0;fontSize=12;startSize=8;endSize=8;curved=1;exitX=0.5;exitY=1;exitDx=0;exitDy=0;" parent="1" source="34zzspt5p7VHjFRCgEZw-141" target="34zzspt5p7VHjFRCgEZw-96" edge="1">
          <mxGeometry width="50" height="50" relative="1" as="geometry">
            <mxPoint x="6541" y="-1749" as="sourcePoint" />
            <mxPoint x="6591" y="-1799" as="targetPoint" />
          </mxGeometry>
        </mxCell>
        <mxCell id="34zzspt5p7VHjFRCgEZw-146" value="Thank you Claire..." style="edgeLabel;html=1;align=center;verticalAlign=middle;resizable=0;points=[];fontSize=16;" parent="34zzspt5p7VHjFRCgEZw-145" vertex="1" connectable="0">
          <mxGeometry x="-0.0685" y="-2" relative="1" as="geometry">
            <mxPoint as="offset" />
          </mxGeometry>
        </mxCell>
        <mxCell id="34zzspt5p7VHjFRCgEZw-149" value="" style="endArrow=classic;html=1;rounded=0;fontSize=12;startSize=8;endSize=8;curved=1;exitX=0.25;exitY=1;exitDx=0;exitDy=0;entryX=0.5;entryY=0;entryDx=0;entryDy=0;" parent="1" source="34zzspt5p7VHjFRCgEZw-111" target="34zzspt5p7VHjFRCgEZw-153" edge="1">
          <mxGeometry width="50" height="50" relative="1" as="geometry">
            <mxPoint x="7683" y="-2573" as="sourcePoint" />
            <mxPoint x="7707" y="-2528" as="targetPoint" />
          </mxGeometry>
        </mxCell>
        <mxCell id="34zzspt5p7VHjFRCgEZw-151" value="Henry needs to&lt;br&gt;become more courageous." style="edgeLabel;html=1;align=center;verticalAlign=middle;resizable=0;points=[];fontSize=16;" parent="34zzspt5p7VHjFRCgEZw-149" vertex="1" connectable="0">
          <mxGeometry x="-0.0444" y="1" relative="1" as="geometry">
            <mxPoint as="offset" />
          </mxGeometry>
        </mxCell>
        <mxCell id="34zzspt5p7VHjFRCgEZw-152" value="Why doesn&#39;t he tell her then since he loves her that much?" style="rounded=0;whiteSpace=wrap;html=1;fontSize=16;fillColor=#d5e8d4;strokeColor=#82b366;" parent="1" vertex="1">
          <mxGeometry x="8372" y="-2564" width="173" height="92" as="geometry" />
        </mxCell>
        <mxCell id="34zzspt5p7VHjFRCgEZw-153" value="Hmmm... Then Henry need to tell her his feelings because if something bad happens to him then she will never know." style="rounded=0;whiteSpace=wrap;html=1;fontSize=16;fillColor=#d5e8d4;strokeColor=#82b366;" parent="1" vertex="1">
          <mxGeometry x="7761" y="-2593" width="171" height="133" as="geometry" />
        </mxCell>
        <mxCell id="34zzspt5p7VHjFRCgEZw-156" value="" style="endArrow=classic;html=1;rounded=0;fontSize=12;startSize=8;endSize=8;curved=1;exitX=0.25;exitY=1;exitDx=0;exitDy=0;entryX=1;entryY=0.5;entryDx=0;entryDy=0;" parent="1" source="34zzspt5p7VHjFRCgEZw-110" target="34zzspt5p7VHjFRCgEZw-153" edge="1">
          <mxGeometry width="50" height="50" relative="1" as="geometry">
            <mxPoint x="8391" y="-2640" as="sourcePoint" />
            <mxPoint x="8378.847826086958" y="-2595" as="targetPoint" />
          </mxGeometry>
        </mxCell>
        <mxCell id="34zzspt5p7VHjFRCgEZw-157" value="Yeah, Henry is scared." style="edgeLabel;html=1;align=center;verticalAlign=middle;resizable=0;points=[];fontSize=16;" parent="34zzspt5p7VHjFRCgEZw-156" vertex="1" connectable="0">
          <mxGeometry x="-0.0468" y="-1" relative="1" as="geometry">
            <mxPoint x="107" y="-48" as="offset" />
          </mxGeometry>
        </mxCell>
        <mxCell id="34zzspt5p7VHjFRCgEZw-159" value="" style="endArrow=classic;html=1;rounded=0;fontSize=12;startSize=8;endSize=8;curved=1;exitX=0.75;exitY=1;exitDx=0;exitDy=0;entryX=0.25;entryY=0;entryDx=0;entryDy=0;" parent="1" source="34zzspt5p7VHjFRCgEZw-153" target="34zzspt5p7VHjFRCgEZw-160" edge="1">
          <mxGeometry width="50" height="50" relative="1" as="geometry">
            <mxPoint x="7928" y="-2305" as="sourcePoint" />
            <mxPoint x="7978" y="-2355" as="targetPoint" />
          </mxGeometry>
        </mxCell>
        <mxCell id="34zzspt5p7VHjFRCgEZw-161" value="That might be the reason&lt;br&gt;he is scared of telling her." style="edgeLabel;html=1;align=center;verticalAlign=middle;resizable=0;points=[];fontSize=16;" parent="34zzspt5p7VHjFRCgEZw-159" vertex="1" connectable="0">
          <mxGeometry x="-0.1023" y="4" relative="1" as="geometry">
            <mxPoint x="-133" y="-57" as="offset" />
          </mxGeometry>
        </mxCell>
        <mxCell id="34zzspt5p7VHjFRCgEZw-160" value="Oh, is this reverse psychology?" style="rounded=0;whiteSpace=wrap;html=1;fontSize=16;fillColor=#d5e8d4;strokeColor=#82b366;" parent="1" vertex="1">
          <mxGeometry x="8437" y="-2211" width="120" height="60" as="geometry" />
        </mxCell>
        <mxCell id="34zzspt5p7VHjFRCgEZw-162" value="" style="endArrow=classic;html=1;rounded=0;fontSize=12;startSize=8;endSize=8;curved=1;exitX=0.25;exitY=1;exitDx=0;exitDy=0;" parent="1" source="34zzspt5p7VHjFRCgEZw-153" target="34zzspt5p7VHjFRCgEZw-163" edge="1">
          <mxGeometry width="50" height="50" relative="1" as="geometry">
            <mxPoint x="7659" y="-2233" as="sourcePoint" />
            <mxPoint x="7709" y="-2283" as="targetPoint" />
          </mxGeometry>
        </mxCell>
        <mxCell id="34zzspt5p7VHjFRCgEZw-176" value="That is correct!" style="edgeLabel;html=1;align=center;verticalAlign=middle;resizable=0;points=[];fontSize=16;" parent="34zzspt5p7VHjFRCgEZw-162" vertex="1" connectable="0">
          <mxGeometry x="-0.1009" y="2" relative="1" as="geometry">
            <mxPoint as="offset" />
          </mxGeometry>
        </mxCell>
        <mxCell id="34zzspt5p7VHjFRCgEZw-163" value="I wish Henry good luck!" style="rounded=0;whiteSpace=wrap;html=1;fontSize=16;fillColor=#d5e8d4;strokeColor=#82b366;" parent="1" vertex="1">
          <mxGeometry x="7919" y="-2260" width="120" height="60" as="geometry" />
        </mxCell>
        <mxCell id="34zzspt5p7VHjFRCgEZw-164" value="" style="endArrow=classic;html=1;rounded=0;fontSize=12;startSize=8;endSize=8;curved=1;exitX=0.5;exitY=1;exitDx=0;exitDy=0;entryX=1;entryY=0;entryDx=0;entryDy=0;" parent="1" source="34zzspt5p7VHjFRCgEZw-152" target="34zzspt5p7VHjFRCgEZw-163" edge="1">
          <mxGeometry width="50" height="50" relative="1" as="geometry">
            <mxPoint x="8199" y="-2211" as="sourcePoint" />
            <mxPoint x="8249" y="-2261" as="targetPoint" />
          </mxGeometry>
        </mxCell>
        <mxCell id="34zzspt5p7VHjFRCgEZw-173" value="Maybe he think she &lt;br&gt;will reject him?" style="edgeLabel;html=1;align=center;verticalAlign=middle;resizable=0;points=[];fontSize=16;" parent="34zzspt5p7VHjFRCgEZw-164" vertex="1" connectable="0">
          <mxGeometry x="-0.4833" y="3" relative="1" as="geometry">
            <mxPoint as="offset" />
          </mxGeometry>
        </mxCell>
        <mxCell id="34zzspt5p7VHjFRCgEZw-165" value="" style="endArrow=classic;html=1;rounded=0;fontSize=12;startSize=8;endSize=8;curved=1;exitX=0.75;exitY=1;exitDx=0;exitDy=0;entryX=0.75;entryY=0;entryDx=0;entryDy=0;" parent="1" source="34zzspt5p7VHjFRCgEZw-152" target="34zzspt5p7VHjFRCgEZw-160" edge="1">
          <mxGeometry width="50" height="50" relative="1" as="geometry">
            <mxPoint x="8192" y="-2195" as="sourcePoint" />
            <mxPoint x="8242" y="-2245" as="targetPoint" />
          </mxGeometry>
        </mxCell>
        <mxCell id="34zzspt5p7VHjFRCgEZw-185" value="Maybe he is be going somewhere&lt;br&gt;far away and doesn&#39;t want to break&lt;br&gt;her heart." style="edgeLabel;html=1;align=center;verticalAlign=middle;resizable=0;points=[];fontSize=16;" parent="34zzspt5p7VHjFRCgEZw-165" vertex="1" connectable="0">
          <mxGeometry x="-0.3095" y="3" relative="1" as="geometry">
            <mxPoint x="23" y="18" as="offset" />
          </mxGeometry>
        </mxCell>
        <mxCell id="34zzspt5p7VHjFRCgEZw-166" value="Thank you big brother!&lt;br&gt;&lt;br&gt;Oh! Mom also wanted to talk to you." style="rounded=0;whiteSpace=wrap;html=1;fontSize=16;fillColor=#d5e8d4;strokeColor=#82b366;" parent="1" vertex="1">
          <mxGeometry x="8301" y="-1893" width="229" height="110" as="geometry" />
        </mxCell>
        <mxCell id="34zzspt5p7VHjFRCgEZw-167" value="" style="endArrow=classic;html=1;rounded=0;fontSize=12;startSize=8;endSize=8;curved=1;entryX=0.25;entryY=0;entryDx=0;entryDy=0;exitX=0.75;exitY=1;exitDx=0;exitDy=0;" parent="1" source="34zzspt5p7VHjFRCgEZw-163" target="34zzspt5p7VHjFRCgEZw-166" edge="1">
          <mxGeometry width="50" height="50" relative="1" as="geometry">
            <mxPoint x="8128" y="-1940" as="sourcePoint" />
            <mxPoint x="8023" y="-1908" as="targetPoint" />
          </mxGeometry>
        </mxCell>
        <mxCell id="34zzspt5p7VHjFRCgEZw-174" value="Hmmm, this is hard to explain&lt;br&gt;but it is all in the head." style="edgeLabel;html=1;align=center;verticalAlign=middle;resizable=0;points=[];fontSize=16;" parent="34zzspt5p7VHjFRCgEZw-167" vertex="1" connectable="0">
          <mxGeometry x="-0.1995" relative="1" as="geometry">
            <mxPoint x="6" y="21" as="offset" />
          </mxGeometry>
        </mxCell>
        <mxCell id="34zzspt5p7VHjFRCgEZw-168" value="" style="endArrow=classic;html=1;rounded=0;fontSize=12;startSize=8;endSize=8;curved=1;exitX=0.75;exitY=1;exitDx=0;exitDy=0;entryX=0.75;entryY=0;entryDx=0;entryDy=0;" parent="1" source="34zzspt5p7VHjFRCgEZw-160" target="34zzspt5p7VHjFRCgEZw-166" edge="1">
          <mxGeometry width="50" height="50" relative="1" as="geometry">
            <mxPoint x="8327" y="-1900" as="sourcePoint" />
            <mxPoint x="8377" y="-1950" as="targetPoint" />
          </mxGeometry>
        </mxCell>
        <mxCell id="34zzspt5p7VHjFRCgEZw-184" value="Wow Claire! You understand&lt;br&gt;some bigs words!" style="edgeLabel;html=1;align=center;verticalAlign=middle;resizable=0;points=[];fontSize=16;" parent="34zzspt5p7VHjFRCgEZw-168" vertex="1" connectable="0">
          <mxGeometry x="-0.1971" y="-2" relative="1" as="geometry">
            <mxPoint x="-32" y="21" as="offset" />
          </mxGeometry>
        </mxCell>
        <mxCell id="34zzspt5p7VHjFRCgEZw-181" value="Claire still hates you." style="rounded=0;whiteSpace=wrap;html=1;fontSize=16;" parent="1" vertex="1">
          <mxGeometry x="7731" y="-1249" width="196" height="38" as="geometry" />
        </mxCell>
        <mxCell id="34zzspt5p7VHjFRCgEZw-182" value="Claire has become a war orphan." style="rounded=0;whiteSpace=wrap;html=1;fontSize=16;" parent="1" vertex="1">
          <mxGeometry x="7698" y="-1188" width="254" height="35" as="geometry" />
        </mxCell>
        <mxCell id="34zzspt5p7VHjFRCgEZw-183" value="She also reminiscent about the time you spent playing with her..." style="rounded=0;whiteSpace=wrap;html=1;fontSize=16;" parent="1" vertex="1">
          <mxGeometry x="7731" y="-1134" width="188" height="66" as="geometry" />
        </mxCell>
        <mxCell id="34zzspt5p7VHjFRCgEZw-188" value="(cries) You are so mean!" style="rounded=0;whiteSpace=wrap;html=1;fontSize=16;fillColor=#f8cecc;strokeColor=#b85450;" parent="1" vertex="1">
          <mxGeometry x="6616" y="-2221" width="120" height="60" as="geometry" />
        </mxCell>
        <mxCell id="34zzspt5p7VHjFRCgEZw-189" value="" style="endArrow=classic;html=1;rounded=0;fontSize=12;startSize=8;endSize=8;curved=1;exitX=1;exitY=1;exitDx=0;exitDy=0;entryX=0.136;entryY=-0.033;entryDx=0;entryDy=0;entryPerimeter=0;" parent="1" source="34zzspt5p7VHjFRCgEZw-142" target="34zzspt5p7VHjFRCgEZw-188" edge="1">
          <mxGeometry width="50" height="50" relative="1" as="geometry">
            <mxPoint x="6728" y="-2208" as="sourcePoint" />
            <mxPoint x="6778" y="-2258" as="targetPoint" />
          </mxGeometry>
        </mxCell>
        <mxCell id="34zzspt5p7VHjFRCgEZw-190" value="Please don&#39;t say that!&lt;br&gt;I am doing this for you and mom!" style="edgeLabel;html=1;align=center;verticalAlign=middle;resizable=0;points=[];fontSize=16;" parent="34zzspt5p7VHjFRCgEZw-189" vertex="1" connectable="0">
          <mxGeometry x="-0.171" y="-4" relative="1" as="geometry">
            <mxPoint as="offset" />
          </mxGeometry>
        </mxCell>
        <mxCell id="34zzspt5p7VHjFRCgEZw-191" value="" style="endArrow=classic;html=1;rounded=0;fontSize=12;startSize=8;endSize=8;curved=1;exitX=0.581;exitY=0.989;exitDx=0;exitDy=0;exitPerimeter=0;entryX=0.25;entryY=0;entryDx=0;entryDy=0;" parent="1" source="34zzspt5p7VHjFRCgEZw-188" target="34zzspt5p7VHjFRCgEZw-192" edge="1">
          <mxGeometry width="50" height="50" relative="1" as="geometry">
            <mxPoint x="7046" y="-1784" as="sourcePoint" />
            <mxPoint x="7096" y="-1834" as="targetPoint" />
            <Array as="points">
              <mxPoint x="6831" y="-2085" />
            </Array>
          </mxGeometry>
        </mxCell>
        <mxCell id="34zzspt5p7VHjFRCgEZw-201" value="Claire you are too young to understand." style="edgeLabel;html=1;align=center;verticalAlign=middle;resizable=0;points=[];fontSize=16;" parent="34zzspt5p7VHjFRCgEZw-191" vertex="1" connectable="0">
          <mxGeometry x="-0.0503" y="-1" relative="1" as="geometry">
            <mxPoint x="-1" y="41" as="offset" />
          </mxGeometry>
        </mxCell>
        <mxCell id="34zzspt5p7VHjFRCgEZw-192" value="I am not too young! I want to understand! I want to understand..." style="rounded=0;whiteSpace=wrap;html=1;fontSize=16;fillColor=#f8cecc;strokeColor=#b85450;" parent="1" vertex="1">
          <mxGeometry x="6914" y="-1937" width="174" height="60" as="geometry" />
        </mxCell>
        <mxCell id="34zzspt5p7VHjFRCgEZw-193" value="That is not a promise! You have to promise me!" style="rounded=0;whiteSpace=wrap;html=1;fontSize=16;" parent="1" vertex="1">
          <mxGeometry x="6986" y="-2324" width="139" height="76" as="geometry" />
        </mxCell>
        <mxCell id="34zzspt5p7VHjFRCgEZw-194" value="" style="endArrow=classic;html=1;rounded=0;fontSize=12;startSize=8;endSize=8;curved=1;exitX=0.25;exitY=1;exitDx=0;exitDy=0;entryX=0.5;entryY=0;entryDx=0;entryDy=0;" parent="1" source="34zzspt5p7VHjFRCgEZw-118" target="34zzspt5p7VHjFRCgEZw-193" edge="1">
          <mxGeometry width="50" height="50" relative="1" as="geometry">
            <mxPoint x="6940" y="-2381" as="sourcePoint" />
            <mxPoint x="6990" y="-2431" as="targetPoint" />
          </mxGeometry>
        </mxCell>
        <mxCell id="34zzspt5p7VHjFRCgEZw-195" value="Sure." style="edgeLabel;html=1;align=center;verticalAlign=middle;resizable=0;points=[];fontSize=16;" parent="34zzspt5p7VHjFRCgEZw-194" vertex="1" connectable="0">
          <mxGeometry x="0.0336" y="-2" relative="1" as="geometry">
            <mxPoint as="offset" />
          </mxGeometry>
        </mxCell>
        <mxCell id="34zzspt5p7VHjFRCgEZw-196" value="" style="endArrow=classic;html=1;rounded=0;fontSize=12;startSize=8;endSize=8;curved=1;exitX=0.75;exitY=1;exitDx=0;exitDy=0;entryX=0.5;entryY=0;entryDx=0;entryDy=0;" parent="1" source="34zzspt5p7VHjFRCgEZw-193" target="34zzspt5p7VHjFRCgEZw-197" edge="1">
          <mxGeometry width="50" height="50" relative="1" as="geometry">
            <mxPoint x="7119" y="-1936" as="sourcePoint" />
            <mxPoint x="7169" y="-1986" as="targetPoint" />
          </mxGeometry>
        </mxCell>
        <mxCell id="34zzspt5p7VHjFRCgEZw-198" value="I promise you." style="edgeLabel;html=1;align=center;verticalAlign=middle;resizable=0;points=[];fontSize=16;" parent="34zzspt5p7VHjFRCgEZw-196" vertex="1" connectable="0">
          <mxGeometry x="-0.1144" y="-1" relative="1" as="geometry">
            <mxPoint x="-31" y="-35" as="offset" />
          </mxGeometry>
        </mxCell>
        <mxCell id="34zzspt5p7VHjFRCgEZw-197" value="Thank you. I will remember our promise." style="rounded=0;whiteSpace=wrap;html=1;fontSize=16;" parent="1" vertex="1">
          <mxGeometry x="7397" y="-1887" width="120" height="60" as="geometry" />
        </mxCell>
        <mxCell id="34zzspt5p7VHjFRCgEZw-199" value="" style="endArrow=classic;html=1;rounded=0;fontSize=12;startSize=8;endSize=8;curved=1;" parent="1" source="34zzspt5p7VHjFRCgEZw-193" target="34zzspt5p7VHjFRCgEZw-192" edge="1">
          <mxGeometry width="50" height="50" relative="1" as="geometry">
            <mxPoint x="6923" y="-1993" as="sourcePoint" />
            <mxPoint x="6973" y="-2043" as="targetPoint" />
          </mxGeometry>
        </mxCell>
        <mxCell id="34zzspt5p7VHjFRCgEZw-211" value="You are too young. You will forget&amp;nbsp;&lt;br&gt;our promise after you grow up." style="edgeLabel;html=1;align=center;verticalAlign=middle;resizable=0;points=[];fontSize=16;" parent="34zzspt5p7VHjFRCgEZw-199" vertex="1" connectable="0">
          <mxGeometry x="-0.2584" y="1" relative="1" as="geometry">
            <mxPoint as="offset" />
          </mxGeometry>
        </mxCell>
        <mxCell id="34zzspt5p7VHjFRCgEZw-200" value="" style="endArrow=classic;html=1;rounded=0;fontSize=12;startSize=8;endSize=8;curved=1;entryX=0.25;entryY=0;entryDx=0;entryDy=0;exitX=0.25;exitY=1;exitDx=0;exitDy=0;" parent="1" source="34zzspt5p7VHjFRCgEZw-188" target="34zzspt5p7VHjFRCgEZw-96" edge="1">
          <mxGeometry width="50" height="50" relative="1" as="geometry">
            <mxPoint x="6564" y="-2054" as="sourcePoint" />
            <mxPoint x="6546" y="-2133" as="targetPoint" />
            <Array as="points">
              <mxPoint x="6708" y="-1798" />
            </Array>
          </mxGeometry>
        </mxCell>
        <mxCell id="34zzspt5p7VHjFRCgEZw-202" value="I am sorry, but I am&lt;br&gt;a hurry." style="edgeLabel;html=1;align=center;verticalAlign=middle;resizable=0;points=[];fontSize=16;" parent="34zzspt5p7VHjFRCgEZw-200" vertex="1" connectable="0">
          <mxGeometry x="-0.0016" relative="1" as="geometry">
            <mxPoint x="33" y="-26" as="offset" />
          </mxGeometry>
        </mxCell>
        <mxCell id="34zzspt5p7VHjFRCgEZw-203" value="" style="endArrow=classic;html=1;rounded=0;fontSize=12;startSize=8;endSize=8;curved=1;exitX=0.5;exitY=1;exitDx=0;exitDy=0;entryX=0.5;entryY=0;entryDx=0;entryDy=0;" parent="1" source="34zzspt5p7VHjFRCgEZw-192" target="34zzspt5p7VHjFRCgEZw-96" edge="1">
          <mxGeometry width="50" height="50" relative="1" as="geometry">
            <mxPoint x="7077" y="-1609" as="sourcePoint" />
            <mxPoint x="7127" y="-1659" as="targetPoint" />
          </mxGeometry>
        </mxCell>
        <mxCell id="34zzspt5p7VHjFRCgEZw-209" value="Claire..." style="edgeLabel;html=1;align=center;verticalAlign=middle;resizable=0;points=[];fontSize=16;" parent="34zzspt5p7VHjFRCgEZw-203" vertex="1" connectable="0">
          <mxGeometry x="-0.1131" y="-3" relative="1" as="geometry">
            <mxPoint as="offset" />
          </mxGeometry>
        </mxCell>
        <mxCell id="34zzspt5p7VHjFRCgEZw-205" value="" style="endArrow=classic;html=1;rounded=0;fontSize=12;startSize=8;endSize=8;curved=1;exitX=0.25;exitY=1;exitDx=0;exitDy=0;entryX=1;entryY=0;entryDx=0;entryDy=0;" parent="1" source="34zzspt5p7VHjFRCgEZw-123" target="34zzspt5p7VHjFRCgEZw-192" edge="1">
          <mxGeometry width="50" height="50" relative="1" as="geometry">
            <mxPoint x="7437" y="-1947" as="sourcePoint" />
            <mxPoint x="7487" y="-1997" as="targetPoint" />
          </mxGeometry>
        </mxCell>
        <mxCell id="34zzspt5p7VHjFRCgEZw-210" value="Hahaha! Adults lie all the&lt;br&gt;time - Claire. You are &lt;br&gt;too young to understand." style="edgeLabel;html=1;align=center;verticalAlign=middle;resizable=0;points=[];fontSize=16;" parent="34zzspt5p7VHjFRCgEZw-205" vertex="1" connectable="0">
          <mxGeometry x="-0.4246" y="3" relative="1" as="geometry">
            <mxPoint x="23" y="-17" as="offset" />
          </mxGeometry>
        </mxCell>
        <mxCell id="34zzspt5p7VHjFRCgEZw-206" value="" style="endArrow=classic;html=1;rounded=0;fontSize=12;startSize=8;endSize=8;curved=1;exitX=0.5;exitY=1;exitDx=0;exitDy=0;entryX=0.632;entryY=0.006;entryDx=0;entryDy=0;entryPerimeter=0;" parent="1" source="34zzspt5p7VHjFRCgEZw-197" target="34zzspt5p7VHjFRCgEZw-96" edge="1">
          <mxGeometry width="50" height="50" relative="1" as="geometry">
            <mxPoint x="7125" y="-1718" as="sourcePoint" />
            <mxPoint x="7175" y="-1768" as="targetPoint" />
          </mxGeometry>
        </mxCell>
        <mxCell id="34zzspt5p7VHjFRCgEZw-207" value="Thank you Claire..." style="edgeLabel;html=1;align=center;verticalAlign=middle;resizable=0;points=[];fontSize=16;" parent="34zzspt5p7VHjFRCgEZw-206" vertex="1" connectable="0">
          <mxGeometry x="-0.3549" y="-4" relative="1" as="geometry">
            <mxPoint as="offset" />
          </mxGeometry>
        </mxCell>
        <mxCell id="34zzspt5p7VHjFRCgEZw-208" value="" style="endArrow=classic;html=1;rounded=0;fontSize=12;startSize=8;endSize=8;curved=1;exitX=0.75;exitY=1;exitDx=0;exitDy=0;entryX=1;entryY=0;entryDx=0;entryDy=0;" parent="1" source="34zzspt5p7VHjFRCgEZw-123" target="34zzspt5p7VHjFRCgEZw-197" edge="1">
          <mxGeometry width="50" height="50" relative="1" as="geometry">
            <mxPoint x="7518" y="-1949" as="sourcePoint" />
            <mxPoint x="7568" y="-1999" as="targetPoint" />
          </mxGeometry>
        </mxCell>
        <mxCell id="34zzspt5p7VHjFRCgEZw-212" value="Liar, liar pants on fire." style="edgeLabel;html=1;align=center;verticalAlign=middle;resizable=0;points=[];fontSize=16;" parent="34zzspt5p7VHjFRCgEZw-208" vertex="1" connectable="0">
          <mxGeometry x="-0.1481" y="-4" relative="1" as="geometry">
            <mxPoint y="-1" as="offset" />
          </mxGeometry>
        </mxCell>
        <mxCell id="34zzspt5p7VHjFRCgEZw-214" value="" style="endArrow=classic;html=1;rounded=0;fontSize=12;startSize=8;endSize=8;curved=1;exitX=0;exitY=0.5;exitDx=0;exitDy=0;entryX=1;entryY=0.5;entryDx=0;entryDy=0;" parent="1" source="34zzspt5p7VHjFRCgEZw-192" target="34zzspt5p7VHjFRCgEZw-141" edge="1">
          <mxGeometry width="50" height="50" relative="1" as="geometry">
            <mxPoint x="6619" y="-1905" as="sourcePoint" />
            <mxPoint x="6669" y="-1955" as="targetPoint" />
          </mxGeometry>
        </mxCell>
        <mxCell id="34zzspt5p7VHjFRCgEZw-215" value="Wait for me when I come&lt;br&gt;back with mom&#39;s medicines." style="edgeLabel;html=1;align=center;verticalAlign=middle;resizable=0;points=[];fontSize=16;" parent="34zzspt5p7VHjFRCgEZw-214" vertex="1" connectable="0">
          <mxGeometry x="0.0235" relative="1" as="geometry">
            <mxPoint x="-83" y="-2" as="offset" />
          </mxGeometry>
        </mxCell>
        <mxCell id="rdN9zASA0rSQTzuwEKC2-1" value="" style="endArrow=classic;html=1;rounded=0;fontSize=12;startSize=8;endSize=8;curved=1;exitX=1;exitY=0.25;exitDx=0;exitDy=0;entryX=0;entryY=0.5;entryDx=0;entryDy=0;" edge="1" parent="1" source="34zzspt5p7VHjFRCgEZw-65" target="34zzspt5p7VHjFRCgEZw-86">
          <mxGeometry width="50" height="50" relative="1" as="geometry">
            <mxPoint x="4546" y="-1812" as="sourcePoint" />
            <mxPoint x="4500" y="-1780" as="targetPoint" />
          </mxGeometry>
        </mxCell>
        <mxCell id="rdN9zASA0rSQTzuwEKC2-2" value="(gives hug)" style="edgeLabel;html=1;align=center;verticalAlign=middle;resizable=0;points=[];fontSize=16;" vertex="1" connectable="0" parent="rdN9zASA0rSQTzuwEKC2-1">
          <mxGeometry x="0.0755" y="-1" relative="1" as="geometry">
            <mxPoint as="offset" />
          </mxGeometry>
        </mxCell>
        <mxCell id="rdN9zASA0rSQTzuwEKC2-3" value="" style="endArrow=classic;html=1;rounded=0;fontSize=12;startSize=8;endSize=8;curved=1;exitX=1;exitY=0;exitDx=0;exitDy=0;entryX=0;entryY=1;entryDx=0;entryDy=0;" edge="1" parent="1" source="34zzspt5p7VHjFRCgEZw-141" target="34zzspt5p7VHjFRCgEZw-188">
          <mxGeometry width="50" height="50" relative="1" as="geometry">
            <mxPoint x="6456" y="-2030" as="sourcePoint" />
            <mxPoint x="6506" y="-2080" as="targetPoint" />
          </mxGeometry>
        </mxCell>
        <mxCell id="rdN9zASA0rSQTzuwEKC2-4" value="Haha jokes on you" style="edgeLabel;html=1;align=center;verticalAlign=middle;resizable=0;points=[];fontSize=16;" vertex="1" connectable="0" parent="rdN9zASA0rSQTzuwEKC2-3">
          <mxGeometry x="0.0897" y="-2" relative="1" as="geometry">
            <mxPoint as="offset" />
          </mxGeometry>
        </mxCell>
        <mxCell id="rdN9zASA0rSQTzuwEKC2-5" value="0" style="ellipse;whiteSpace=wrap;html=1;aspect=fixed;fontSize=16;fillColor=#f8cecc;strokeColor=#b85450;" vertex="1" parent="1">
          <mxGeometry x="7472" y="-3442" width="48" height="48" as="geometry" />
        </mxCell>
        <mxCell id="rdN9zASA0rSQTzuwEKC2-6" value="1" style="ellipse;whiteSpace=wrap;html=1;aspect=fixed;fontSize=16;fillColor=#f8cecc;strokeColor=#b85450;" vertex="1" parent="1">
          <mxGeometry x="8025" y="-3215" width="48" height="48" as="geometry" />
        </mxCell>
        <mxCell id="rdN9zASA0rSQTzuwEKC2-7" value="2" style="ellipse;whiteSpace=wrap;html=1;aspect=fixed;fontSize=16;fillColor=#f8cecc;strokeColor=#b85450;" vertex="1" parent="1">
          <mxGeometry x="6616" y="-3196" width="48" height="48" as="geometry" />
        </mxCell>
        <mxCell id="rdN9zASA0rSQTzuwEKC2-8" value="3" style="ellipse;whiteSpace=wrap;html=1;aspect=fixed;fontSize=16;fillColor=#f8cecc;strokeColor=#b85450;" vertex="1" parent="1">
          <mxGeometry x="6281" y="-2863" width="48" height="48" as="geometry" />
        </mxCell>
        <mxCell id="rdN9zASA0rSQTzuwEKC2-9" value="4" style="ellipse;whiteSpace=wrap;html=1;aspect=fixed;fontSize=16;fillColor=#f8cecc;strokeColor=#b85450;" vertex="1" parent="1">
          <mxGeometry x="7713" y="-2903" width="48" height="48" as="geometry" />
        </mxCell>
        <mxCell id="rdN9zASA0rSQTzuwEKC2-10" value="5" style="ellipse;whiteSpace=wrap;html=1;aspect=fixed;fontSize=16;fillColor=#f8cecc;strokeColor=#b85450;" vertex="1" parent="1">
          <mxGeometry x="8511" y="-2961" width="48" height="48" as="geometry" />
        </mxCell>
        <mxCell id="rdN9zASA0rSQTzuwEKC2-11" value="6" style="ellipse;whiteSpace=wrap;html=1;aspect=fixed;fontSize=16;fillColor=#f8cecc;strokeColor=#b85450;" vertex="1" parent="1">
          <mxGeometry x="8589" y="-2595" width="48" height="48" as="geometry" />
        </mxCell>
        <mxCell id="rdN9zASA0rSQTzuwEKC2-12" value="7" style="ellipse;whiteSpace=wrap;html=1;aspect=fixed;fontSize=16;fillColor=#f8cecc;strokeColor=#b85450;" vertex="1" parent="1">
          <mxGeometry x="7698" y="-2638" width="48" height="48" as="geometry" />
        </mxCell>
        <mxCell id="rdN9zASA0rSQTzuwEKC2-13" value="8" style="ellipse;whiteSpace=wrap;html=1;aspect=fixed;fontSize=16;fillColor=#f8cecc;strokeColor=#b85450;" vertex="1" parent="1">
          <mxGeometry x="7401" y="-2610" width="48" height="48" as="geometry" />
        </mxCell>
        <mxCell id="rdN9zASA0rSQTzuwEKC2-14" value="9" style="ellipse;whiteSpace=wrap;html=1;aspect=fixed;fontSize=16;fillColor=#f8cecc;strokeColor=#b85450;" vertex="1" parent="1">
          <mxGeometry x="6414" y="-2557" width="48" height="48" as="geometry" />
        </mxCell>
        <mxCell id="rdN9zASA0rSQTzuwEKC2-15" value="10" style="ellipse;whiteSpace=wrap;html=1;aspect=fixed;fontSize=16;fillColor=#f8cecc;strokeColor=#b85450;" vertex="1" parent="1">
          <mxGeometry x="6247" y="-2073" width="48" height="48" as="geometry" />
        </mxCell>
        <mxCell id="rdN9zASA0rSQTzuwEKC2-17" value="11" style="ellipse;whiteSpace=wrap;html=1;aspect=fixed;fontSize=16;fillColor=#f8cecc;strokeColor=#b85450;" vertex="1" parent="1">
          <mxGeometry x="6740" y="-2248" width="48" height="48" as="geometry" />
        </mxCell>
        <mxCell id="rdN9zASA0rSQTzuwEKC2-18" value="12" style="ellipse;whiteSpace=wrap;html=1;aspect=fixed;fontSize=16;fillColor=#f8cecc;strokeColor=#b85450;" vertex="1" parent="1">
          <mxGeometry x="7135" y="-2303" width="48" height="48" as="geometry" />
        </mxCell>
        <mxCell id="rdN9zASA0rSQTzuwEKC2-19" value="13" style="ellipse;whiteSpace=wrap;html=1;aspect=fixed;fontSize=16;fillColor=#f8cecc;strokeColor=#b85450;" vertex="1" parent="1">
          <mxGeometry x="7435" y="-2266" width="48" height="48" as="geometry" />
        </mxCell>
        <mxCell id="rdN9zASA0rSQTzuwEKC2-20" value="14" style="ellipse;whiteSpace=wrap;html=1;aspect=fixed;fontSize=16;fillColor=#f8cecc;strokeColor=#b85450;" vertex="1" parent="1">
          <mxGeometry x="7860" y="-2242" width="48" height="48" as="geometry" />
        </mxCell>
        <mxCell id="rdN9zASA0rSQTzuwEKC2-21" value="15" style="ellipse;whiteSpace=wrap;html=1;aspect=fixed;fontSize=16;fillColor=#f8cecc;strokeColor=#b85450;" vertex="1" parent="1">
          <mxGeometry x="8570" y="-2215" width="48" height="48" as="geometry" />
        </mxCell>
        <mxCell id="rdN9zASA0rSQTzuwEKC2-22" value="16" style="ellipse;whiteSpace=wrap;html=1;aspect=fixed;fontSize=16;fillColor=#f8cecc;strokeColor=#b85450;" vertex="1" parent="1">
          <mxGeometry x="8547" y="-1815" width="48" height="48" as="geometry" />
        </mxCell>
        <mxCell id="rdN9zASA0rSQTzuwEKC2-23" value="17" style="ellipse;whiteSpace=wrap;html=1;aspect=fixed;fontSize=16;fillColor=#f8cecc;strokeColor=#b85450;" vertex="1" parent="1">
          <mxGeometry x="7335" y="-1875" width="48" height="48" as="geometry" />
        </mxCell>
        <mxCell id="rdN9zASA0rSQTzuwEKC2-24" value="18" style="ellipse;whiteSpace=wrap;html=1;aspect=fixed;fontSize=16;fillColor=#f8cecc;strokeColor=#b85450;" vertex="1" parent="1">
          <mxGeometry x="7093" y="-1900" width="48" height="48" as="geometry" />
        </mxCell>
        <mxCell id="rdN9zASA0rSQTzuwEKC2-27" value="19" style="ellipse;whiteSpace=wrap;html=1;aspect=fixed;fontSize=16;fillColor=#f8cecc;strokeColor=#b85450;" vertex="1" parent="1">
          <mxGeometry x="6951" y="-1515" width="48" height="48" as="geometry" />
        </mxCell>
        <mxCell id="rdN9zASA0rSQTzuwEKC2-28" value="0" style="ellipse;whiteSpace=wrap;html=1;aspect=fixed;fontSize=16;fillColor=#f8cecc;strokeColor=#b85450;" vertex="1" parent="1">
          <mxGeometry x="5210" y="-2795" width="48" height="48" as="geometry" />
        </mxCell>
        <mxCell id="rdN9zASA0rSQTzuwEKC2-29" value="2" style="ellipse;whiteSpace=wrap;html=1;aspect=fixed;fontSize=16;fillColor=#f8cecc;strokeColor=#b85450;" vertex="1" parent="1">
          <mxGeometry x="5424" y="-2629" width="48" height="48" as="geometry" />
        </mxCell>
        <mxCell id="rdN9zASA0rSQTzuwEKC2-30" value="1" style="ellipse;whiteSpace=wrap;html=1;aspect=fixed;fontSize=16;fillColor=#f8cecc;strokeColor=#b85450;" vertex="1" parent="1">
          <mxGeometry x="4845" y="-2626" width="48" height="48" as="geometry" />
        </mxCell>
        <mxCell id="rdN9zASA0rSQTzuwEKC2-31" value="3" style="ellipse;whiteSpace=wrap;html=1;aspect=fixed;fontSize=16;fillColor=#f8cecc;strokeColor=#b85450;" vertex="1" parent="1">
          <mxGeometry x="4630" y="-2476" width="48" height="48" as="geometry" />
        </mxCell>
        <mxCell id="rdN9zASA0rSQTzuwEKC2-32" value="4" style="ellipse;whiteSpace=wrap;html=1;aspect=fixed;fontSize=16;fillColor=#f8cecc;strokeColor=#b85450;" vertex="1" parent="1">
          <mxGeometry x="5109" y="-2451" width="48" height="48" as="geometry" />
        </mxCell>
        <mxCell id="rdN9zASA0rSQTzuwEKC2-33" value="5" style="ellipse;whiteSpace=wrap;html=1;aspect=fixed;fontSize=16;fillColor=#f8cecc;strokeColor=#b85450;" vertex="1" parent="1">
          <mxGeometry x="5764" y="-2469" width="48" height="48" as="geometry" />
        </mxCell>
        <mxCell id="rdN9zASA0rSQTzuwEKC2-34" value="6" style="ellipse;whiteSpace=wrap;html=1;aspect=fixed;fontSize=16;fillColor=#f8cecc;strokeColor=#b85450;" vertex="1" parent="1">
          <mxGeometry x="5881" y="-2200" width="48" height="48" as="geometry" />
        </mxCell>
        <mxCell id="rdN9zASA0rSQTzuwEKC2-35" value="7" style="ellipse;whiteSpace=wrap;html=1;aspect=fixed;fontSize=16;fillColor=#f8cecc;strokeColor=#b85450;" vertex="1" parent="1">
          <mxGeometry x="5405" y="-2189" width="48" height="48" as="geometry" />
        </mxCell>
        <mxCell id="rdN9zASA0rSQTzuwEKC2-36" value="8" style="ellipse;whiteSpace=wrap;html=1;aspect=fixed;fontSize=16;fillColor=#f8cecc;strokeColor=#b85450;" vertex="1" parent="1">
          <mxGeometry x="5255" y="-2170" width="48" height="48" as="geometry" />
        </mxCell>
        <mxCell id="rdN9zASA0rSQTzuwEKC2-37" value="9" style="ellipse;whiteSpace=wrap;html=1;aspect=fixed;fontSize=16;fillColor=#f8cecc;strokeColor=#b85450;" vertex="1" parent="1">
          <mxGeometry x="4916" y="-2173" width="48" height="48" as="geometry" />
        </mxCell>
        <mxCell id="rdN9zASA0rSQTzuwEKC2-38" value="10" style="ellipse;whiteSpace=wrap;html=1;aspect=fixed;fontSize=16;fillColor=#f8cecc;strokeColor=#b85450;" vertex="1" parent="1">
          <mxGeometry x="4352" y="-2205" width="48" height="48" as="geometry" />
        </mxCell>
        <mxCell id="rdN9zASA0rSQTzuwEKC2-39" value="11" style="ellipse;whiteSpace=wrap;html=1;aspect=fixed;fontSize=16;fillColor=#f8cecc;strokeColor=#b85450;" vertex="1" parent="1">
          <mxGeometry x="4199" y="-1742" width="48" height="48" as="geometry" />
        </mxCell>
        <mxCell id="rdN9zASA0rSQTzuwEKC2-40" value="12" style="ellipse;whiteSpace=wrap;html=1;aspect=fixed;fontSize=16;fillColor=#f8cecc;strokeColor=#b85450;" vertex="1" parent="1">
          <mxGeometry x="4627" y="-1870" width="48" height="48" as="geometry" />
        </mxCell>
        <mxCell id="rdN9zASA0rSQTzuwEKC2-41" value="13" style="ellipse;whiteSpace=wrap;html=1;aspect=fixed;fontSize=16;fillColor=#f8cecc;strokeColor=#b85450;" vertex="1" parent="1">
          <mxGeometry x="5032" y="-1873" width="48" height="48" as="geometry" />
        </mxCell>
        <mxCell id="rdN9zASA0rSQTzuwEKC2-42" value="14" style="ellipse;whiteSpace=wrap;html=1;aspect=fixed;fontSize=16;fillColor=#f8cecc;strokeColor=#b85450;" vertex="1" parent="1">
          <mxGeometry x="5338" y="-1879.17" width="48" height="48" as="geometry" />
        </mxCell>
        <mxCell id="rdN9zASA0rSQTzuwEKC2-43" value="15" style="ellipse;whiteSpace=wrap;html=1;aspect=fixed;fontSize=16;fillColor=#f8cecc;strokeColor=#b85450;" vertex="1" parent="1">
          <mxGeometry x="5517" y="-1877" width="48" height="48" as="geometry" />
        </mxCell>
        <mxCell id="rdN9zASA0rSQTzuwEKC2-44" value="16" style="ellipse;whiteSpace=wrap;html=1;aspect=fixed;fontSize=16;fillColor=#f8cecc;strokeColor=#b85450;" vertex="1" parent="1">
          <mxGeometry x="5904" y="-1764" width="48" height="48" as="geometry" />
        </mxCell>
        <mxCell id="rdN9zASA0rSQTzuwEKC2-45" value="17" style="ellipse;whiteSpace=wrap;html=1;aspect=fixed;fontSize=16;fillColor=#f8cecc;strokeColor=#b85450;" vertex="1" parent="1">
          <mxGeometry x="5230" y="-1345" width="48" height="48" as="geometry" />
        </mxCell>
        <mxCell id="rdN9zASA0rSQTzuwEKC2-46" value="" style="endArrow=classic;html=1;rounded=0;fontSize=12;startSize=8;endSize=8;curved=1;exitX=0.25;exitY=1;exitDx=0;exitDy=0;entryX=1;entryY=0.25;entryDx=0;entryDy=0;" edge="1" parent="1" source="34zzspt5p7VHjFRCgEZw-163" target="34zzspt5p7VHjFRCgEZw-96">
          <mxGeometry width="50" height="50" relative="1" as="geometry">
            <mxPoint x="7603" y="-1629" as="sourcePoint" />
            <mxPoint x="7653" y="-1679" as="targetPoint" />
            <Array as="points">
              <mxPoint x="7720" y="-1765" />
            </Array>
          </mxGeometry>
        </mxCell>
        <mxCell id="rdN9zASA0rSQTzuwEKC2-50" value="Great! Now please go play outside for a bit." style="edgeLabel;html=1;align=center;verticalAlign=middle;resizable=0;points=[];fontSize=16;" vertex="1" connectable="0" parent="rdN9zASA0rSQTzuwEKC2-46">
          <mxGeometry x="-0.4341" y="-22" relative="1" as="geometry">
            <mxPoint x="1" as="offset" />
          </mxGeometry>
        </mxCell>
        <mxCell id="rdN9zASA0rSQTzuwEKC2-47" value="" style="endArrow=classic;html=1;rounded=0;fontSize=12;startSize=8;endSize=8;curved=1;exitX=0;exitY=1;exitDx=0;exitDy=0;entryX=1;entryY=0.75;entryDx=0;entryDy=0;" edge="1" parent="1" source="34zzspt5p7VHjFRCgEZw-160" target="34zzspt5p7VHjFRCgEZw-96">
          <mxGeometry width="50" height="50" relative="1" as="geometry">
            <mxPoint x="8001" y="-2117" as="sourcePoint" />
            <mxPoint x="7317" y="-1432" as="targetPoint" />
            <Array as="points">
              <mxPoint x="7772" y="-1682" />
            </Array>
          </mxGeometry>
        </mxCell>
        <mxCell id="rdN9zASA0rSQTzuwEKC2-48" value="Great! Now please go play outside for a bit." style="edgeLabel;html=1;align=center;verticalAlign=middle;resizable=0;points=[];fontSize=16;" vertex="1" connectable="0" parent="rdN9zASA0rSQTzuwEKC2-47">
          <mxGeometry x="-0.2983" y="-8" relative="1" as="geometry">
            <mxPoint y="1" as="offset" />
          </mxGeometry>
        </mxCell>
        <mxCell id="rdN9zASA0rSQTzuwEKC2-51" value="" style="endArrow=classic;html=1;rounded=0;fontSize=12;startSize=8;endSize=8;curved=1;exitX=1;exitY=0.75;exitDx=0;exitDy=0;entryX=0;entryY=1;entryDx=0;entryDy=0;" edge="1" parent="1" source="34zzspt5p7VHjFRCgEZw-197" target="34zzspt5p7VHjFRCgEZw-166">
          <mxGeometry width="50" height="50" relative="1" as="geometry">
            <mxPoint x="7782" y="-1515" as="sourcePoint" />
            <mxPoint x="7832" y="-1565" as="targetPoint" />
            <Array as="points">
              <mxPoint x="7895" y="-1577" />
            </Array>
          </mxGeometry>
        </mxCell>
        <mxCell id="rdN9zASA0rSQTzuwEKC2-52" value="Great! Now please go play outside for a bit." style="edgeLabel;html=1;align=center;verticalAlign=middle;resizable=0;points=[];fontSize=16;" vertex="1" connectable="0" parent="rdN9zASA0rSQTzuwEKC2-51">
          <mxGeometry x="0.2825" y="65" relative="1" as="geometry">
            <mxPoint as="offset" />
          </mxGeometry>
        </mxCell>
        <mxCell id="rdN9zASA0rSQTzuwEKC2-55" value="" style="endArrow=classic;html=1;rounded=0;fontSize=12;startSize=8;endSize=8;curved=1;exitX=1;exitY=0.25;exitDx=0;exitDy=0;entryX=0;entryY=0.5;entryDx=0;entryDy=0;" edge="1" parent="1" source="34zzspt5p7VHjFRCgEZw-41" target="34zzspt5p7VHjFRCgEZw-17">
          <mxGeometry width="50" height="50" relative="1" as="geometry">
            <mxPoint x="5341" y="-2388" as="sourcePoint" />
            <mxPoint x="5510" y="-2385" as="targetPoint" />
          </mxGeometry>
        </mxCell>
        <mxCell id="rdN9zASA0rSQTzuwEKC2-56" value="He was a fool" style="edgeLabel;html=1;align=center;verticalAlign=middle;resizable=0;points=[];fontSize=16;" vertex="1" connectable="0" parent="rdN9zASA0rSQTzuwEKC2-55">
          <mxGeometry x="-0.2634" y="1" relative="1" as="geometry">
            <mxPoint x="11" as="offset" />
          </mxGeometry>
        </mxCell>
        <mxCell id="rdN9zASA0rSQTzuwEKC2-57" value="" style="endArrow=classic;html=1;rounded=0;fontSize=12;startSize=8;endSize=8;curved=1;exitX=1;exitY=0.5;exitDx=0;exitDy=0;entryX=0;entryY=0.75;entryDx=0;entryDy=0;" edge="1" parent="1" source="34zzspt5p7VHjFRCgEZw-64" target="34zzspt5p7VHjFRCgEZw-69">
          <mxGeometry width="50" height="50" relative="1" as="geometry">
            <mxPoint x="5221" y="-1663" as="sourcePoint" />
            <mxPoint x="5271" y="-1713" as="targetPoint" />
          </mxGeometry>
        </mxCell>
        <mxCell id="rdN9zASA0rSQTzuwEKC2-58" value="All right" style="edgeLabel;html=1;align=center;verticalAlign=middle;resizable=0;points=[];fontSize=16;" vertex="1" connectable="0" parent="rdN9zASA0rSQTzuwEKC2-57">
          <mxGeometry x="0.0624" y="-2" relative="1" as="geometry">
            <mxPoint as="offset" />
          </mxGeometry>
        </mxCell>
      </root>
    </mxGraphModel>
  </diagram>
</mxfile>
